<!-- Generated by readme-aura https://github.com/collectioneur/readme-aura -->
<svg width="430" height="220" viewBox="0 0 430 220" xmlns="http://www.w3.org/2000/svg"><defs><clipPath id="satori_bc-id"><path x="0" y="0" width="430" height="220" d="M16,0 h398 a16,16 0 0 1 16,16 v188 a16,16 0 0 1 -16,16 h-398 a16,16 0 0 1 -16,-16 v-188 a16,16 0 0 1 16,-16"/></clipPath></defs><clipPath id="satori_cp-id"><path x="0" y="0" width="430" height="220" d="M16,0 h398 a16,16 0 0 1 16,16 v188 a16,16 0 0 1 -16,16 h-398 a16,16 0 0 1 -16,-16 v-188 a16,16 0 0 1 16,-16"/></clipPath><mask id="satori_om-id"><rect x="1" y="1" width="428" height="218" fill="#fff"/><path width="430" height="220" fill="none" stroke="#000" stroke-width="2" d="M4.686,4.686 A16,16 0 0 1 16,0 h398 a16,16 0 0 1 16,16 v188 a16,16 0 0 1 -16,16 h-398 a16,16 0 0 1 -16,-16 v-188 A16,16 0 0 1 4.686,4.686"/></mask><path x="0" y="0" width="430" height="220" fill="#08080c" d="M16,0 h398 a16,16 0 0 1 16,16 v188 a16,16 0 0 1 -16,16 h-398 a16,16 0 0 1 -16,-16 v-188 a16,16 0 0 1 16,-16"/><path width="430" height="220" clip-path="url(#satori_bc-id)" fill="none" stroke="rgba(110,80,220,0.18)" stroke-width="2" d="M4.686,4.686 A16,16 0 0 1 16,0 h398 a16,16 0 0 1 16,16 v188 a16,16 0 0 1 -16,16 h-398 a16,16 0 0 1 -16,-16 v-188 A16,16 0 0 1 4.686,4.686"/><clipPath id="satori_cp-id-0" clip-path="url(#satori_cp-id)"><rect x="1" y="1" width="430" height="220"/></clipPath><mask id="satori_om-id-0"><rect x="1" y="1" width="430" height="220" fill="#fff" mask="url(#satori_om-id)"/></mask><svg x="1" y="1" width="430" height="220" preserveAspectRatio="none" clip-path="url(#satori_cp-id-0)" mask="url(#satori_om-id-0)"><defs><radialGradient id="g1" cx="50%" cy="50%" r="50%"><stop offset="0%" stop-color="rgba(115,20,215,0.68)"></stop><stop offset="42%" stop-color="rgba(85,15,175,0.30)"></stop><stop offset="70%" stop-color="rgba(85,15,175,0)"></stop></radialGradient><radialGradient id="g2" cx="50%" cy="50%" r="50%"><stop offset="0%" stop-color="rgba(55,55,255,0.55)"></stop><stop offset="45%" stop-color="rgba(35,45,210,0.22)"></stop><stop offset="70%" stop-color="rgba(35,45,210,0)"></stop></radialGradient><radialGradient id="g3" cx="50%" cy="50%" r="50%"><stop offset="0%" stop-color="rgba(0,130,255,0.42)"></stop><stop offset="50%" stop-color="rgba(0,100,220,0.16)"></stop><stop offset="70%" stop-color="rgba(0,100,220,0)"></stop></radialGradient><radialGradient id="g4" cx="50%" cy="50%" r="50%"><stop offset="0%" stop-color="rgba(0,185,240,0.32)"></stop><stop offset="70%" stop-color="rgba(0,185,240,0)"></stop></radialGradient><radialGradient id="g5" cx="50%" cy="50%" r="50%"><stop offset="0%" stop-color="rgba(100,25,205,0.42)"></stop><stop offset="70%" stop-color="rgba(100,25,205,0)"></stop></radialGradient><radialGradient id="g6" cx="50%" cy="50%" r="50%"><stop offset="0%" stop-color="rgba(60,80,255,0.35)"></stop><stop offset="70%" stop-color="rgba(60,80,255,0)"></stop></radialGradient></defs><ellipse id="glow-1" cx="170" cy="168" rx="260" ry="170" fill="url(#g1)"></ellipse><ellipse id="glow-2" cx="320" cy="178" rx="220" ry="140" fill="url(#g2)"></ellipse><ellipse id="glow-3" cx="460" cy="178" rx="190" ry="130" fill="url(#g3)"></ellipse><ellipse id="glow-4" cx="590" cy="188" rx="160" ry="110" fill="url(#g4)"></ellipse><ellipse id="glow-5" cx="750" cy="188" rx="140" ry="100" fill="url(#g5)"></ellipse><ellipse id="glow-6" cx="420" cy="138" rx="100" ry="80" fill="url(#g6)"></ellipse><style>

         @keyframes float-slow {
           0%, 100% { transform: translateX(0px); opacity: 0.8; }
           50% { transform: translateX(350px); opacity: 1.2; }
         }
         @keyframes float-medium {
           0%, 100% { transform: translateX(0px); opacity: 0.7; }
           50% { transform: translateX(-250px); opacity: 1.1; }
         }
         @keyframes float-fast {
           0%, 100% { transform: translateX(0px); opacity: 0.9; }
           50% { transform: translateX(200px); opacity: 0.6; }
         }
         @keyframes float-diagonal {
           0%, 100% { transform: translate(0px, 0px); opacity: 0.75; }
           50% { transform: translate(120px, 30px); opacity: 1.0; }
         }
         @keyframes float-wave {
           0%, 100% { transform: translateX(0px); opacity: 0.65; }
           33% { transform: translateX(-160px); opacity: 0.9; }
           66% { transform: translateX(80px); opacity: 1.0; }
         }
         @keyframes float-pulse {
           0%, 100% { transform: scale(1); opacity: 0.8; }
           50% { transform: scale(1.3); opacity: 0.4; }
         }
         #glow-1 { animation: float-slow 9s ease-in-out infinite; }
         #glow-2 { animation: float-medium 12s ease-in-out infinite; }
         #glow-3 { animation: float-fast 8s ease-in-out infinite; }
         #glow-4 { animation: float-diagonal 11s ease-in-out infinite reverse; }
         #glow-5 { animation: float-wave 14s ease-in-out infinite reverse; }
         #glow-6 { animation: float-pulse 6s ease-in-out infinite; }

</style>
</svg><mask id="satori_om-id-0-0"><rect x="1" y="1" width="0" height="220" fill="#fff" mask="url(#satori_om-id)"/></mask><mask id="satori_om-id-0-0-0"><rect x="1" y="1" width="0" height="220" fill="#fff" mask="url(#satori_om-id)"/></mask><mask id="satori_om-id-0-0-0-0"><rect x="1" y="1" width="0" height="220" fill="#fff" mask="url(#satori_om-id)"/></mask><mask id="satori_om-id-0-0-0-1"><rect x="1" y="1" width="0" height="220" fill="#fff" mask="url(#satori_om-id)"/></mask><mask id="satori_om-id-0-0-0-2"><rect x="1" y="1" width="0" height="220" fill="#fff" mask="url(#satori_om-id)"/></mask><mask id="satori_om-id-0-0-1"><rect x="1" y="1" width="0" height="220" fill="#fff" mask="url(#satori_om-id)"/></mask><mask id="satori_om-id-0-0-1-0"><rect x="1" y="1" width="0" height="220" fill="#fff" mask="url(#satori_om-id)"/></mask><mask id="satori_om-id-0-0-1-1"><rect x="1" y="1" width="0" height="220" fill="#fff" mask="url(#satori_om-id)"/></mask><mask id="satori_om-id-0-0-1-2"><rect x="1" y="1" width="0" height="220" fill="#fff" mask="url(#satori_om-id)"/></mask><mask id="satori_om-id-0-0-2"><rect x="1" y="1" width="0" height="220" fill="#fff" mask="url(#satori_om-id)"/></mask><mask id="satori_om-id-0-0-2-0"><rect x="1" y="1" width="0" height="220" fill="#fff" mask="url(#satori_om-id)"/></mask><mask id="satori_om-id-0-0-2-1"><rect x="1" y="1" width="0" height="220" fill="#fff" mask="url(#satori_om-id)"/></mask><mask id="satori_om-id-0-0-2-2"><rect x="1" y="1" width="0" height="220" fill="#fff" mask="url(#satori_om-id)"/></mask><mask id="satori_om-id-0-0-3"><rect x="1" y="1" width="0" height="220" fill="#fff" mask="url(#satori_om-id)"/></mask><mask id="satori_om-id-0-0-3-0"><rect x="1" y="1" width="0" height="220" fill="#fff" mask="url(#satori_om-id)"/></mask><mask id="satori_om-id-0-0-3-1"><rect x="1" y="1" width="0" height="220" fill="#fff" mask="url(#satori_om-id)"/></mask><mask id="satori_om-id-0-0-4"><rect x="1" y="1" width="0" height="220" fill="#fff" mask="url(#satori_om-id)"/></mask><mask id="satori_om-id-0-0-4-0"><rect x="1" y="1" width="0" height="220" fill="#fff" mask="url(#satori_om-id)"/></mask><mask id="satori_om-id-0-0-4-1"><rect x="1" y="1" width="0" height="220" fill="#fff" mask="url(#satori_om-id)"/></mask><mask id="satori_om-id-0-0-5"><rect x="1" y="1" width="0" height="220" fill="#fff" mask="url(#satori_om-id)"/></mask><mask id="satori_om-id-0-0-5-0"><rect x="1" y="1" width="0" height="220" fill="#fff" mask="url(#satori_om-id)"/></mask><mask id="satori_om-id-0-0-5-1"><rect x="1" y="1" width="0" height="220" fill="#fff" mask="url(#satori_om-id)"/></mask><mask id="satori_om-id-0-1"><rect x="1" y="1" width="0" height="220" fill="#fff" mask="url(#satori_om-id)"/></mask><mask id="satori_om-id-0-2"><rect x="1" y="1" width="0" height="220" fill="#fff" mask="url(#satori_om-id)"/></mask><mask id="satori_om-id-0-3"><rect x="1" y="1" width="0" height="220" fill="#fff" mask="url(#satori_om-id)"/></mask><mask id="satori_om-id-0-4"><rect x="1" y="1" width="0" height="220" fill="#fff" mask="url(#satori_om-id)"/></mask><mask id="satori_om-id-0-5"><rect x="1" y="1" width="0" height="220" fill="#fff" mask="url(#satori_om-id)"/></mask><mask id="satori_om-id-0-6"><rect x="1" y="1" width="0" height="220" fill="#fff" mask="url(#satori_om-id)"/></mask><mask id="satori_om-id-1"><rect x="25" y="21" width="380" height="15" fill="#fff" mask="url(#satori_om-id)"/></mask><g mask="url(#satori_om-id)" clip-path="url(#satori_cp-id)"><path fill="rgba(155,140,210,0.5)" d="M28.1 25.8L25.4 25.8L25.4 24.3L32.6 24.3L32.6 25.8L29.9 25.8L29.9 33L28.1 33L28.1 25.8ZM42.7 33L36.8 33L36.8 24.3L42.6 24.3L42.6 25.8L38.6 25.8L38.6 27.9L42.3 27.9L42.3 29.3L38.6 29.3L38.6 31.5L42.7 31.5L42.7 33ZM50.9 33.1L50.9 33.1Q49.7 33.1 48.8 32.6Q47.9 32.1 47.4 31.1Q46.8 30.1 46.8 28.6L46.8 28.6Q46.8 27.2 47.4 26.2Q47.9 25.2 48.8 24.7Q49.8 24.2 50.9 24.2L50.9 24.2Q51.6 24.2 52.3 24.4Q52.9 24.6 53.4 25.0Q53.9 25.4 54.2 25.9Q54.6 26.5 54.7 27.3L54.7 27.3L52.8 27.3Q52.8 26.9 52.6 26.6Q52.5 26.3 52.2 26.1Q52.0 25.9 51.6 25.8Q51.3 25.7 50.9 25.7L50.9 25.7Q50.3 25.7 49.7 26.1Q49.2 26.4 49.0 27.1Q48.7 27.7 48.7 28.6L48.7 28.6Q48.7 29.6 49.0 30.2Q49.2 30.9 49.8 31.2Q50.3 31.5 50.9 31.5L50.9 31.5Q51.3 31.5 51.6 31.4Q51.9 31.3 52.2 31.1Q52.5 30.9 52.6 30.7Q52.8 30.4 52.9 30.0L52.9 30.0L54.7 30.0Q54.6 30.6 54.3 31.2Q54.0 31.7 53.5 32.2Q53.1 32.6 52.4 32.9Q51.7 33.1 50.9 33.1ZM60.8 33L59.0 33L59.0 24.3L60.8 24.3L60.8 27.8L64.6 27.8L64.6 24.3L66.3 24.3L66.3 33L64.6 33L64.6 29.3L60.8 29.3L60.8 33Z M80.0 33.1L80.0 33.1Q78.9 33.1 78.1 32.8Q77.4 32.5 76.9 31.9Q76.5 31.2 76.5 30.3L76.5 30.3L78.2 30.3Q78.3 30.7 78.5 31.0Q78.7 31.3 79.1 31.5Q79.5 31.6 80.0 31.6L80.0 31.6Q80.4 31.6 80.8 31.5Q81.1 31.3 81.3 31.1Q81.5 30.8 81.5 30.5L81.5 30.5Q81.5 30.2 81.4 30.0Q81.2 29.8 80.9 29.7Q80.5 29.5 80.0 29.4L80.0 29.4L79.1 29.2Q78.0 28.9 77.3 28.3Q76.7 27.7 76.7 26.8L76.7 26.8Q76.7 26.0 77.1 25.4Q77.6 24.8 78.3 24.5Q79.0 24.2 80.0 24.2L80.0 24.2Q81.0 24.2 81.7 24.5Q82.4 24.8 82.8 25.4Q83.2 26.0 83.2 26.8L83.2 26.8L81.5 26.8Q81.4 26.2 81.0 25.9Q80.6 25.7 80.0 25.7L80.0 25.7Q79.5 25.7 79.2 25.8Q78.9 25.9 78.7 26.1Q78.5 26.4 78.5 26.7L78.5 26.7Q78.5 27.0 78.7 27.2Q78.9 27.4 79.3 27.5Q79.6 27.7 79.9 27.8L79.9 27.8L80.7 28.0Q81.3 28.1 81.8 28.3Q82.2 28.5 82.6 28.8Q82.9 29.1 83.1 29.5Q83.3 30.0 83.3 30.5L83.3 30.5Q83.3 31.3 82.9 31.9Q82.5 32.5 81.8 32.8Q81.0 33.1 80.0 33.1ZM90.0 25.8L87.3 25.8L87.3 24.3L94.4 24.3L94.4 25.8L91.7 25.8L91.7 33L90.0 33L90.0 25.8ZM100.1 33L98.1 33L101.1 24.3L103.5 24.3L106.5 33L104.5 33L103.9 31.0L100.8 31.0L100.1 33ZM101.2 29.6L103.4 29.6L103.1 28.8Q102.9 28.0 102.6 27L102.6 27Q102.5 26.4 102.3 25.7L102.3 25.7Q102.1 26.4 101.9 27.0L101.9 27.0Q101.7 28.0 101.5 28.8L101.5 28.8L101.2 29.6ZM114.4 33.1L114.4 33.1Q113.3 33.1 112.3 32.6Q111.4 32.1 110.9 31.1Q110.4 30.1 110.4 28.6L110.4 28.6Q110.4 27.2 110.9 26.2Q111.4 25.2 112.3 24.7Q113.3 24.2 114.4 24.2L114.4 24.2Q115.2 24.2 115.8 24.4Q116.4 24.6 116.9 25.0Q117.4 25.4 117.8 25.9Q118.1 26.5 118.2 27.3L118.2 27.3L116.4 27.3Q116.3 26.9 116.1 26.6Q116.0 26.3 115.7 26.1Q115.5 25.9 115.1 25.8Q114.8 25.7 114.4 25.7L114.4 25.7Q113.8 25.7 113.3 26.1Q112.7 26.4 112.5 27.1Q112.2 27.7 112.2 28.6L112.2 28.6Q112.2 29.6 112.5 30.2Q112.8 30.9 113.3 31.2Q113.8 31.5 114.4 31.5L114.4 31.5Q114.8 31.5 115.1 31.4Q115.5 31.3 115.7 31.1Q116.0 30.9 116.1 30.7Q116.3 30.4 116.4 30.0L116.4 30.0L118.2 30.0Q118.1 30.6 117.8 31.2Q117.5 31.7 117.0 32.2Q116.6 32.6 115.9 32.9Q115.2 33.1 114.4 33.1ZM124.3 33L122.5 33L122.5 24.3L124.3 24.3L124.3 26.7L124.2 28.6Q124.3 28.6 124.3 28.5L124.3 28.5Q124.6 28.1 124.9 27.7Q125.2 27.3 125.6 26.8L125.6 26.8L127.7 24.3L129.9 24.3L126.7 28.0L130.0 33L127.9 33L125.4 29.2L124.3 30.5L124.3 33Z "/></g><mask id="satori_om-id-2"><rect x="25" y="50" width="380" height="109" fill="#fff" mask="url(#satori_om-id)"/></mask><mask id="satori_om-id-2-0"><rect x="25" y="50" width="380" height="27" fill="#fff" mask="url(#satori_om-id)"/></mask><mask id="satori_om-id-2-0-0"><rect x="25" y="56" width="80" height="15" fill="#fff" mask="url(#satori_om-id)"/></mask><g mask="url(#satori_om-id)" clip-path="url(#satori_cp-id)"><path fill="#a78bfa" d="M31.3 68L25.8 68L25.8 59.3L27.6 59.3L27.6 66.5L31.3 66.5L31.3 68ZM35.0 68L33.1 68L36.1 59.3L38.4 59.3L41.5 68L39.5 68L38.8 66.0L35.7 66.0L35.0 68ZM36.1 64.6L38.3 64.6L38.1 63.8Q37.8 63.0 37.6 62L37.6 62Q37.4 61.4 37.2 60.7L37.2 60.7Q37.0 61.4 36.9 62.0L36.9 62.0Q36.6 63.0 36.4 63.8L36.4 63.8L36.1 64.6ZM45.4 68L43.5 68L43.5 59.3L45.5 59.3L48.3 63.7Q48.5 64.0 48.7 64.4Q48.9 64.8 49.2 65.3L49.2 65.3Q49.3 65.6 49.4 65.8L49.4 65.8Q49.4 65.6 49.4 65.4L49.4 65.4Q49.3 64.8 49.3 64.3Q49.3 63.8 49.3 63.5L49.3 63.5L49.3 59.3L51.1 59.3L51.1 68L49.1 68L46.6 64.0Q46.3 63.5 46.1 63.1Q45.8 62.7 45.6 62.2L45.6 62.2Q45.4 61.9 45.2 61.5L45.2 61.5Q45.3 61.8 45.3 62.2L45.3 62.2Q45.3 62.7 45.3 63.2Q45.4 63.7 45.4 64.0L45.4 64.0L45.4 68ZM57.5 68.1L57.5 68.1Q56.3 68.1 55.4 67.6Q54.5 67.0 54.0 66.0Q53.4 65.0 53.4 63.6L53.4 63.6Q53.4 62.2 54.0 61.2Q54.5 60.2 55.4 59.7Q56.4 59.2 57.5 59.2L57.5 59.2Q58.2 59.2 58.9 59.4Q59.5 59.6 60.0 60.0Q60.5 60.4 60.8 60.9Q61.1 61.4 61.2 62.1L61.2 62.1L59.4 62.1Q59.3 61.8 59.2 61.5Q59.0 61.3 58.7 61.1Q58.5 60.9 58.2 60.8Q57.9 60.7 57.5 60.7L57.5 60.7Q56.9 60.7 56.3 61.1Q55.8 61.4 55.5 62.1Q55.3 62.7 55.3 63.6Q55.3 64.6 55.5 65.2Q55.8 65.8 56.3 66.2Q56.9 66.5 57.6 66.5L57.6 66.5Q58.2 66.5 58.6 66.3Q59.1 66.1 59.3 65.6L59.3 65.6Q59.6 65.2 59.6 64.7L59.6 64.7L57.7 64.7L57.7 63.3L61.3 63.3L61.3 64.4Q61.3 65.6 60.8 66.4Q60.3 67.2 59.5 67.7Q58.6 68.1 57.5 68.1ZM67.3 68.1L67.3 68.1Q66.2 68.1 65.4 67.7Q64.6 67.3 64.1 66.6Q63.7 65.9 63.7 64.9L63.7 64.9L63.7 59.3L65.5 59.3L65.5 64.8Q65.5 65.3 65.7 65.7Q65.9 66.1 66.3 66.3Q66.7 66.5 67.3 66.5L67.3 66.5Q67.8 66.5 68.2 66.3Q68.7 66.1 68.9 65.7Q69.1 65.3 69.1 64.8L69.1 64.8L69.1 59.3L70.9 59.3L70.9 64.9Q70.9 65.9 70.4 66.6Q70.0 67.3 69.2 67.7Q68.4 68.1 67.3 68.1ZM74.9 68L73.0 68L75.9 59.3L78.3 59.3L81.4 68L79.4 68L78.7 66.0L75.6 66.0L74.9 68ZM76.0 64.6L78.2 64.6L78.0 63.8Q77.7 63.0 77.5 62L77.5 62Q77.3 61.4 77.1 60.7L77.1 60.7Q76.9 61.4 76.8 62.0L76.8 62.0Q76.5 63.0 76.3 63.8L76.3 63.8L76.0 64.6ZM87.3 68.1L87.3 68.1Q86.1 68.1 85.1 67.6Q84.2 67.0 83.7 66.0Q83.2 65.0 83.2 63.6L83.2 63.6Q83.2 62.2 83.7 61.2Q84.3 60.2 85.2 59.7Q86.1 59.2 87.3 59.2L87.3 59.2Q88.0 59.2 88.6 59.4Q89.3 59.6 89.8 60.0Q90.3 60.4 90.6 60.9Q90.9 61.4 91.0 62.1L91.0 62.1L89.2 62.1Q89.1 61.8 88.9 61.5Q88.7 61.3 88.5 61.1Q88.3 60.9 88.0 60.8Q87.6 60.7 87.3 60.7L87.3 60.7Q86.6 60.7 86.1 61.1Q85.6 61.4 85.3 62.1Q85.0 62.7 85.0 63.6Q85.0 64.6 85.3 65.2Q85.6 65.8 86.1 66.2Q86.6 66.5 87.3 66.5L87.3 66.5Q87.9 66.5 88.4 66.3Q88.8 66.1 89.1 65.6L89.1 65.6Q89.3 65.2 89.3 64.7L89.3 64.7L87.4 64.7L87.4 63.3L91.1 63.3L91.1 64.4Q91.1 65.6 90.6 66.4Q90.1 67.2 89.2 67.7Q88.4 68.1 87.3 68.1ZM99.3 68L93.4 68L93.4 59.3L99.3 59.3L99.3 60.8L95.2 60.8L95.2 62.9L99.0 62.9L99.0 64.3L95.2 64.3L95.2 66.5L99.3 66.5L99.3 68ZM104.9 68.1L104.9 68.1Q103.9 68.1 103.1 67.8Q102.3 67.5 101.9 66.9Q101.5 66.2 101.4 65.3L101.4 65.3L103.2 65.3Q103.2 65.7 103.4 66.0Q103.7 66.3 104.0 66.5Q104.4 66.6 104.9 66.6L104.9 66.6Q105.4 66.6 105.7 66.5Q106.1 66.3 106.3 66.1Q106.5 65.8 106.5 65.5L106.5 65.5Q106.5 65.2 106.3 65.0Q106.1 64.8 105.8 64.7Q105.5 64.5 105.0 64.4L105.0 64.4L104.0 64.2Q102.9 63.9 102.3 63.3Q101.7 62.7 101.7 61.8L101.7 61.8Q101.7 61.0 102.1 60.4Q102.5 59.8 103.3 59.5Q104.0 59.2 104.9 59.2L104.9 59.2Q105.9 59.2 106.6 59.5Q107.4 59.8 107.8 60.4Q108.2 61.0 108.2 61.8L108.2 61.8L106.4 61.8Q106.4 61.2 106.0 60.9Q105.6 60.7 104.9 60.7L104.9 60.7Q104.5 60.7 104.2 60.8Q103.8 60.9 103.7 61.1Q103.5 61.4 103.5 61.7L103.5 61.7Q103.5 62.0 103.7 62.2Q103.9 62.4 104.2 62.5Q104.5 62.7 104.9 62.8L104.9 62.8L105.7 63.0Q106.2 63.1 106.7 63.3Q107.2 63.5 107.5 63.8Q107.9 64.1 108.1 64.5Q108.3 65.0 108.3 65.5L108.3 65.5Q108.3 66.3 107.9 66.9Q107.5 67.5 106.7 67.8Q106.0 68.1 104.9 68.1Z "/></g><mask id="satori_om-id-2-0-1"><rect x="117" y="50" width="140" height="27" fill="#fff" mask="url(#satori_om-id)"/></mask><defs><clipPath id="satori_bc-id-2-0-1-0" clip-path="url(#satori_cp-id)"><path x="117" y="50" width="77" height="27" d="M123,50 h65 a6,6 0 0 1 6,6 v15 a6,6 0 0 1 -6,6 h-65 a6,6 0 0 1 -6,-6 v-15 a6,6 0 0 1 6,-6"/></clipPath></defs><mask id="satori_om-id-2-0-1-0"><rect x="118" y="51" width="75" height="25" fill="#fff" mask="url(#satori_om-id)"/><path width="77" height="27" fill="none" stroke="#000" stroke-width="2" d="M118.757,51.757 A6,6 0 0 1 123,50 h65 a6,6 0 0 1 6,6 v15 a6,6 0 0 1 -6,6 h-65 a6,6 0 0 1 -6,-6 v-15 A6,6 0 0 1 118.757,51.757"/></mask><path x="117" y="50" width="77" height="27" fill="#a78bfa15" d="M123,50 h65 a6,6 0 0 1 6,6 v15 a6,6 0 0 1 -6,6 h-65 a6,6 0 0 1 -6,-6 v-15 a6,6 0 0 1 6,-6" clip-path="url(#satori_cp-id)" mask="url(#satori_om-id)"/><path width="77" height="27" clip-path="url(#satori_bc-id-2-0-1-0)" fill="none" stroke="#a78bfa35" stroke-width="2" d="M118.757,51.757 A6,6 0 0 1 123,50 h65 a6,6 0 0 1 6,6 v15 a6,6 0 0 1 -6,6 h-65 a6,6 0 0 1 -6,-6 v-15 A6,6 0 0 1 118.757,51.757"/><g mask="url(#satori_om-id)" clip-path="url(#satori_cp-id)"><path fill="rgba(225,220,255,0.85)" d="M134.0 69L131.9 69L131.9 58.8L135.9 58.8Q137.1 58.8 137.9 59.3Q138.7 59.7 139.1 60.5Q139.5 61.2 139.5 62.3L139.5 62.3Q139.5 63.3 139.1 64.0Q138.7 64.8 137.8 65.2Q137.0 65.7 135.8 65.7L135.8 65.7L134.0 65.7L134.0 69ZM134.0 60.5L134.0 64.0L135.5 64.0Q136.2 64.0 136.6 63.8Q137.0 63.5 137.2 63.2Q137.4 62.8 137.4 62.3Q137.4 61.7 137.2 61.4Q137.0 61.0 136.6 60.8Q136.1 60.5 135.5 60.5L135.5 60.5L134.0 60.5ZM140.9 71.7L140.9 71.7L141.4 70.2L141.6 70.2Q142.0 70.3 142.3 70.3Q142.7 70.2 142.9 70.0Q143.1 69.8 143.1 69.4L143.1 69.4L143.2 69.0L140.3 61.4L142.5 61.4L143.7 65.3Q144.0 66.1 144.1 66.8L144.1 66.8Q144.2 67.1 144.2 67.3L144.2 67.3Q144.3 67.1 144.4 66.8L144.4 66.8Q144.5 66.1 144.8 65.3L144.8 65.3L146.1 61.4L148.3 61.4L145.0 69.9Q144.8 70.5 144.4 71.0Q144.1 71.4 143.5 71.7Q143.0 71.9 142.2 71.9L142.2 71.9Q141.8 71.9 141.5 71.9Q141.1 71.8 140.9 71.7ZM151.7 61.4L153.2 61.4L153.2 62.9L151.7 62.9L151.7 66.8Q151.7 67.1 151.9 67.3Q152.1 67.5 152.4 67.5L152.4 67.5Q152.6 67.5 152.8 67.4Q153.0 67.4 153.1 67.4L153.1 67.4L153.4 68.9Q153.0 69.0 152.7 69.1Q152.4 69.1 152.1 69.1L152.1 69.1Q150.9 69.1 150.3 68.5Q149.7 68.0 149.7 66.9L149.7 66.9L149.7 62.9L148.6 62.9L148.6 61.4L149.7 61.4L149.7 59.5L151.7 59.5L151.7 61.4ZM156.6 64.6L156.6 64.6L156.6 69L154.5 69L154.5 58.8L156.5 58.8L156.5 62.8Q156.8 62.2 157.3 61.8L157.3 61.8Q157.9 61.3 158.8 61.3L158.8 61.3Q159.6 61.3 160.2 61.6Q160.8 62.0 161.1 62.6Q161.5 63.2 161.5 64.1L161.5 64.1L161.5 69L159.4 69L159.4 64.5Q159.4 63.8 159.1 63.4Q158.7 63.0 158.0 63.0L158.0 63.0Q157.6 63.0 157.3 63.2Q156.9 63.4 156.7 63.7Q156.6 64.1 156.6 64.6ZM166.6 69.2L166.6 69.2Q165.5 69.2 164.6 68.7Q163.8 68.2 163.4 67.3Q162.9 66.4 162.9 65.2L162.9 65.2Q162.9 64.0 163.4 63.1Q163.8 62.3 164.6 61.8Q165.5 61.3 166.6 61.3L166.6 61.3Q167.8 61.3 168.6 61.8Q169.5 62.3 169.9 63.1Q170.4 64.0 170.4 65.2L170.4 65.2Q170.4 66.4 169.9 67.3Q169.5 68.2 168.6 68.7Q167.8 69.2 166.6 69.2ZM166.6 67.5L166.6 67.5Q167.2 67.5 167.6 67.2Q167.9 66.9 168.1 66.4Q168.3 65.9 168.3 65.2L168.3 65.2Q168.3 64.5 168.1 64.0Q167.9 63.5 167.6 63.2Q167.2 62.9 166.6 62.9L166.6 62.9Q166.1 62.9 165.7 63.2Q165.4 63.5 165.2 64.0Q165.0 64.5 165.0 65.2L165.0 65.2Q165.0 65.9 165.2 66.4Q165.4 66.9 165.7 67.2Q166.1 67.5 166.6 67.5ZM173.9 64.6L173.9 64.6L173.9 69L171.8 69L171.8 61.4L173.7 61.4L173.8 62.9Q174.1 62.2 174.6 61.8L174.6 61.8Q175.2 61.3 176.1 61.3L176.1 61.3Q176.9 61.3 177.5 61.6Q178.1 62.0 178.4 62.6Q178.8 63.2 178.8 64.1L178.8 64.1L178.8 69L176.7 69L176.7 64.5Q176.7 63.8 176.4 63.4Q176.0 63.0 175.3 63.0L175.3 63.0Q174.9 63.0 174.6 63.2Q174.2 63.4 174.0 63.7Q173.9 64.1 173.9 64.6Z "/></g><defs><clipPath id="satori_bc-id-2-0-1-1" clip-path="url(#satori_cp-id)"><path x="201" y="50" width="56" height="27" d="M207,50 h44 a6,6 0 0 1 6,6 v15 a6,6 0 0 1 -6,6 h-44 a6,6 0 0 1 -6,-6 v-15 a6,6 0 0 1 6,-6"/></clipPath></defs><mask id="satori_om-id-2-0-1-1"><rect x="202" y="51" width="54" height="25" fill="#fff" mask="url(#satori_om-id)"/><path width="56" height="27" fill="none" stroke="#000" stroke-width="2" d="M202.757,51.757 A6,6 0 0 1 207,50 h44 a6,6 0 0 1 6,6 v15 a6,6 0 0 1 -6,6 h-44 a6,6 0 0 1 -6,-6 v-15 A6,6 0 0 1 202.757,51.757"/></mask><path x="201" y="50" width="56" height="27" fill="#a78bfa15" d="M207,50 h44 a6,6 0 0 1 6,6 v15 a6,6 0 0 1 -6,6 h-44 a6,6 0 0 1 -6,-6 v-15 a6,6 0 0 1 6,-6" clip-path="url(#satori_cp-id)" mask="url(#satori_om-id)"/><path width="56" height="27" clip-path="url(#satori_bc-id-2-0-1-1)" fill="none" stroke="#a78bfa35" stroke-width="2" d="M202.757,51.757 A6,6 0 0 1 207,50 h44 a6,6 0 0 1 6,6 v15 a6,6 0 0 1 -6,6 h-44 a6,6 0 0 1 -6,-6 v-15 A6,6 0 0 1 202.757,51.757"/><g mask="url(#satori_om-id)" clip-path="url(#satori_cp-id)"><path fill="rgba(225,220,255,0.85)" d="M219.7 69.2L219.7 69.2Q218.4 69.2 217.5 68.8Q216.6 68.4 216.1 67.7Q215.6 66.9 215.6 65.8L215.6 65.8L217.6 65.8Q217.7 66.4 217.9 66.7Q218.2 67.0 218.6 67.2Q219.1 67.4 219.6 67.4L219.6 67.4Q220.2 67.4 220.6 67.2Q221.0 67.1 221.3 66.8Q221.5 66.5 221.5 66.1L221.5 66.1Q221.5 65.7 221.3 65.5Q221.1 65.3 220.7 65.1Q220.3 64.9 219.7 64.8L219.7 64.8L218.6 64.5Q217.3 64.2 216.6 63.5Q215.9 62.9 215.9 61.7L215.9 61.7Q215.9 60.8 216.4 60.1Q216.8 59.4 217.7 59.1Q218.6 58.7 219.7 58.7L219.7 58.7Q220.8 58.7 221.7 59.1Q222.5 59.5 223.0 60.1Q223.4 60.8 223.4 61.7L223.4 61.7L221.4 61.7Q221.4 61.1 220.9 60.8Q220.4 60.4 219.7 60.4L219.7 60.4Q219.1 60.4 218.8 60.6Q218.4 60.7 218.2 61.0Q218.0 61.3 218.0 61.6L218.0 61.6Q218.0 62.0 218.2 62.2Q218.4 62.5 218.8 62.6Q219.2 62.8 219.6 62.9L219.6 62.9L220.5 63.1Q221.2 63.3 221.7 63.5Q222.3 63.8 222.7 64.1Q223.1 64.5 223.4 65.0Q223.6 65.5 223.6 66.1L223.6 66.1Q223.6 67.0 223.1 67.7Q222.7 68.4 221.8 68.8Q220.9 69.2 219.7 69.2ZM229.6 69.1L229.6 69.1Q228.2 69.1 227.1 68.5Q226.1 67.9 225.4 66.7Q224.8 65.6 224.8 63.9L224.8 63.9Q224.8 62.3 225.4 61.1Q226.1 59.9 227.1 59.3Q228.2 58.7 229.6 58.7L229.6 58.7Q230.9 58.7 232.0 59.3Q233.1 59.9 233.7 61.1Q234.3 62.3 234.3 63.9L234.3 63.9Q234.3 65.6 233.7 66.7L233.7 66.7Q233.3 67.5 232.7 68.0L232.7 68.0L234.2 69.8L232.2 69.8L231.4 68.8Q230.6 69.1 229.6 69.1ZM230.2 67.2L228.9 65.5L230.7 65.5L231.4 66.5Q231.7 66.2 231.9 65.8L231.9 65.8Q232.2 65.0 232.2 63.9L232.2 63.9Q232.2 62.8 231.9 62.1Q231.5 61.3 230.9 60.9Q230.4 60.5 229.6 60.5L229.6 60.5Q228.8 60.5 228.2 60.9Q227.6 61.3 227.3 62.1Q226.9 62.8 226.9 63.9L226.9 63.9Q226.9 65.0 227.3 65.8Q227.6 66.5 228.2 66.9Q228.8 67.3 229.6 67.3L229.6 67.3Q229.9 67.3 230.2 67.2L230.2 67.2ZM242.4 69L236.0 69L236.0 58.8L238.1 58.8L238.1 67.3L242.4 67.3L242.4 69Z "/></g><mask id="satori_om-id-2-1"><rect x="25" y="91" width="380" height="27" fill="#fff" mask="url(#satori_om-id)"/></mask><mask id="satori_om-id-2-1-0"><rect x="25" y="97" width="80" height="15" fill="#fff" mask="url(#satori_om-id)"/></mask><g mask="url(#satori_om-id)" clip-path="url(#satori_cp-id)"><path fill="#60a5fa" d="M28.1 101.8L25.4 101.8L25.4 100.3L32.6 100.3L32.6 101.8L29.9 101.8L29.9 109L28.1 109L28.1 101.8ZM38.6 109.1L38.6 109.1Q37.5 109.1 36.6 108.6Q35.6 108.1 35.1 107.1Q34.6 106.1 34.6 104.6L34.6 104.6Q34.6 103.2 35.1 102.2Q35.6 101.2 36.6 100.7Q37.5 100.2 38.6 100.2L38.6 100.2Q39.8 100.2 40.7 100.7Q41.6 101.2 42.2 102.2Q42.7 103.2 42.7 104.6L42.7 104.6Q42.7 106.1 42.2 107.1Q41.6 108.1 40.7 108.6Q39.8 109.1 38.6 109.1ZM38.6 107.5L38.6 107.5Q39.3 107.5 39.8 107.2Q40.3 106.9 40.6 106.2Q40.9 105.6 40.9 104.6L40.9 104.6Q40.9 103.7 40.6 103.0Q40.3 102.4 39.8 102.1Q39.3 101.7 38.6 101.7L38.6 101.7Q38.0 101.7 37.4 102.1Q36.9 102.4 36.7 103.1Q36.4 103.7 36.4 104.6L36.4 104.6Q36.4 105.6 36.7 106.2Q36.9 106.9 37.4 107.2Q38.0 107.5 38.6 107.5ZM48.9 109.1L48.9 109.1Q47.7 109.1 46.8 108.6Q45.9 108.1 45.3 107.1Q44.8 106.1 44.8 104.6L44.8 104.6Q44.8 103.2 45.3 102.2Q45.9 101.2 46.8 100.7Q47.7 100.2 48.9 100.2L48.9 100.2Q50.0 100.2 51.0 100.7Q51.9 101.2 52.4 102.2Q53.0 103.2 53.0 104.6L53.0 104.6Q53.0 106.1 52.4 107.1Q51.9 108.1 51.0 108.6Q50.0 109.1 48.9 109.1ZM48.9 107.5L48.9 107.5Q49.6 107.5 50.1 107.2Q50.6 106.9 50.9 106.2Q51.1 105.6 51.1 104.6L51.1 104.6Q51.1 103.7 50.9 103.0Q50.6 102.4 50.1 102.1Q49.6 101.7 48.9 101.7L48.9 101.7Q48.2 101.7 47.7 102.1Q47.2 102.4 46.9 103.1Q46.6 103.7 46.6 104.6L46.6 104.6Q46.6 105.6 46.9 106.2Q47.2 106.9 47.7 107.2Q48.2 107.5 48.9 107.5ZM60.8 109L55.3 109L55.3 100.3L57.1 100.3L57.1 107.5L60.8 107.5L60.8 109ZM66.3 109.1L66.3 109.1Q65.2 109.1 64.5 108.8Q63.7 108.5 63.2 107.9Q62.8 107.2 62.8 106.3L62.8 106.3L64.5 106.3Q64.6 106.7 64.8 107.0Q65.0 107.3 65.4 107.5Q65.8 107.6 66.3 107.6L66.3 107.6Q66.7 107.6 67.1 107.5Q67.4 107.3 67.6 107.1Q67.8 106.8 67.8 106.5L67.8 106.5Q67.8 106.2 67.7 106.0Q67.5 105.8 67.2 105.7Q66.8 105.5 66.3 105.4L66.3 105.4L65.4 105.2Q64.3 104.9 63.6 104.3Q63.0 103.7 63.0 102.8L63.0 102.8Q63.0 102.0 63.4 101.4Q63.9 100.8 64.6 100.5Q65.4 100.2 66.3 100.2L66.3 100.2Q67.3 100.2 68.0 100.5Q68.7 100.8 69.1 101.4Q69.5 102.0 69.5 102.8L69.5 102.8L67.8 102.8Q67.8 102.2 67.4 101.9Q67.0 101.7 66.3 101.7L66.3 101.7Q65.8 101.7 65.5 101.8Q65.2 101.9 65.0 102.1Q64.9 102.4 64.9 102.7L64.9 102.7Q64.9 103.0 65.0 103.2Q65.2 103.4 65.6 103.5Q65.9 103.7 66.2 103.8L66.2 103.8L67.0 104.0Q67.6 104.1 68.1 104.3Q68.5 104.5 68.9 104.8Q69.3 105.1 69.5 105.5Q69.6 106.0 69.6 106.5L69.6 106.5Q69.6 107.3 69.2 107.9Q68.8 108.5 68.1 108.8Q67.3 109.1 66.3 109.1Z "/></g><mask id="satori_om-id-2-1-1"><rect x="117" y="91" width="179" height="27" fill="#fff" mask="url(#satori_om-id)"/></mask><defs><clipPath id="satori_bc-id-2-1-1-0" clip-path="url(#satori_cp-id)"><path x="117" y="91" width="51" height="27" d="M123,91 h39 a6,6 0 0 1 6,6 v15 a6,6 0 0 1 -6,6 h-39 a6,6 0 0 1 -6,-6 v-15 a6,6 0 0 1 6,-6"/></clipPath></defs><mask id="satori_om-id-2-1-1-0"><rect x="118" y="92" width="49" height="25" fill="#fff" mask="url(#satori_om-id)"/><path width="51" height="27" fill="none" stroke="#000" stroke-width="2" d="M118.757,92.757 A6,6 0 0 1 123,91 h39 a6,6 0 0 1 6,6 v15 a6,6 0 0 1 -6,6 h-39 a6,6 0 0 1 -6,-6 v-15 A6,6 0 0 1 118.757,92.757"/></mask><path x="117" y="91" width="51" height="27" fill="#60a5fa15" d="M123,91 h39 a6,6 0 0 1 6,6 v15 a6,6 0 0 1 -6,6 h-39 a6,6 0 0 1 -6,-6 v-15 a6,6 0 0 1 6,-6" clip-path="url(#satori_cp-id)" mask="url(#satori_om-id)"/><path width="51" height="27" clip-path="url(#satori_bc-id-2-1-1-0)" fill="none" stroke="#60a5fa35" stroke-width="2" d="M118.757,92.757 A6,6 0 0 1 123,91 h39 a6,6 0 0 1 6,6 v15 a6,6 0 0 1 -6,6 h-39 a6,6 0 0 1 -6,-6 v-15 A6,6 0 0 1 118.757,92.757"/><g mask="url(#satori_om-id)" clip-path="url(#satori_cp-id)"><path fill="rgba(225,220,255,0.85)" d="M134.7 110.1L134.7 110.1Q133.8 110.1 133.1 109.7Q132.4 109.2 132.0 108.3Q131.6 107.5 131.6 106.2L131.6 106.2Q131.6 104.9 132.0 104.0Q132.4 103.1 133.1 102.7Q133.8 102.3 134.7 102.3L134.7 102.3Q135.3 102.3 135.7 102.5Q136.2 102.7 136.4 103.0Q136.7 103.3 136.8 103.6L136.8 103.6L136.9 103.6L136.9 99.8L139.0 99.8L139.0 110L136.9 110L136.9 108.8L136.8 108.8Q136.7 109.1 136.4 109.4Q136.2 109.7 135.7 109.9Q135.3 110.1 134.7 110.1ZM135.3 108.5L135.3 108.5Q135.8 108.5 136.2 108.2Q136.6 107.9 136.7 107.4Q136.9 106.9 136.9 106.2L136.9 106.2Q136.9 105.5 136.8 105.0Q136.6 104.5 136.2 104.2Q135.8 103.9 135.3 103.9L135.3 103.9Q134.8 103.9 134.4 104.2Q134.0 104.5 133.8 105.0Q133.7 105.5 133.7 106.2L133.7 106.2Q133.7 106.9 133.8 107.4Q134.0 107.9 134.4 108.2Q134.8 108.5 135.3 108.5ZM145.0 110.1L145.0 110.1Q144.4 110.1 143.9 109.9Q143.5 109.7 143.2 109.4Q143.0 109.1 142.8 108.8L142.8 108.8L142.7 108.8L142.7 110L140.7 110L140.7 99.8L142.8 99.8L142.8 103.6L142.8 103.6Q143.0 103.3 143.2 103.0Q143.5 102.7 143.9 102.5Q144.3 102.3 145.0 102.3L145.0 102.3Q145.8 102.3 146.5 102.7Q147.2 103.1 147.7 104.0Q148.1 104.9 148.1 106.2L148.1 106.2Q148.1 107.5 147.7 108.3Q147.3 109.2 146.6 109.7Q145.9 110.1 145.0 110.1ZM144.4 108.5L144.4 108.5Q144.9 108.5 145.2 108.2Q145.6 107.9 145.8 107.4Q146.0 106.9 146.0 106.2L146.0 106.2Q146.0 105.5 145.8 105.0Q145.6 104.5 145.3 104.2Q144.9 103.9 144.4 103.9L144.4 103.9Q143.8 103.9 143.5 104.2Q143.1 104.5 142.9 105.0Q142.7 105.5 142.7 106.2L142.7 106.2Q142.7 106.9 142.9 107.4Q143.1 107.9 143.5 108.2Q143.8 108.5 144.4 108.5ZM151.9 102.4L153.3 102.4L153.3 103.9L151.9 103.9L151.9 107.8Q151.9 108.1 152.1 108.3Q152.2 108.5 152.6 108.5L152.6 108.5Q152.7 108.5 152.9 108.4Q153.1 108.4 153.2 108.4L153.2 108.4L153.5 109.9Q153.2 110.0 152.9 110.1Q152.5 110.1 152.2 110.1L152.2 110.1Q151.1 110.1 150.4 109.5Q149.8 109.0 149.8 107.9L149.8 107.9L149.8 103.9L148.8 103.9L148.8 102.4L149.8 102.4L149.8 100.5L151.9 100.5L151.9 102.4Z "/></g><defs><clipPath id="satori_bc-id-2-1-1-1" clip-path="url(#satori_cp-id)"><path x="175" y="91" width="48" height="27" d="M181,91 h36 a6,6 0 0 1 6,6 v15 a6,6 0 0 1 -6,6 h-36 a6,6 0 0 1 -6,-6 v-15 a6,6 0 0 1 6,-6"/></clipPath></defs><mask id="satori_om-id-2-1-1-1"><rect x="176" y="92" width="46" height="25" fill="#fff" mask="url(#satori_om-id)"/><path width="48" height="27" fill="none" stroke="#000" stroke-width="2" d="M176.757,92.757 A6,6 0 0 1 181,91 h36 a6,6 0 0 1 6,6 v15 a6,6 0 0 1 -6,6 h-36 a6,6 0 0 1 -6,-6 v-15 A6,6 0 0 1 176.757,92.757"/></mask><path x="175" y="91" width="48" height="27" fill="#60a5fa15" d="M181,91 h36 a6,6 0 0 1 6,6 v15 a6,6 0 0 1 -6,6 h-36 a6,6 0 0 1 -6,-6 v-15 a6,6 0 0 1 6,-6" clip-path="url(#satori_cp-id)" mask="url(#satori_om-id)"/><path width="48" height="27" clip-path="url(#satori_bc-id-2-1-1-1)" fill="none" stroke="#60a5fa35" stroke-width="2" d="M176.757,92.757 A6,6 0 0 1 181,91 h36 a6,6 0 0 1 6,6 v15 a6,6 0 0 1 -6,6 h-36 a6,6 0 0 1 -6,-6 v-15 A6,6 0 0 1 176.757,92.757"/><g mask="url(#satori_om-id)" clip-path="url(#satori_cp-id)"><path fill="rgba(225,220,255,0.85)" d="M194.4 110.1L194.4 110.1Q193.0 110.1 191.9 109.5Q190.9 108.9 190.2 107.7Q189.6 106.5 189.6 104.9L189.6 104.9Q189.6 103.3 190.3 102.1Q190.9 100.9 192.0 100.3Q193.0 99.7 194.4 99.7L194.4 99.7Q195.2 99.7 196.0 99.9Q196.7 100.2 197.3 100.6Q197.9 101.1 198.3 101.7Q198.6 102.3 198.7 103.1L198.7 103.1L196.6 103.1Q196.5 102.7 196.3 102.4Q196.1 102.2 195.8 101.9Q195.6 101.7 195.2 101.6Q194.8 101.5 194.4 101.5L194.4 101.5Q193.6 101.5 193.0 101.9Q192.4 102.3 192.1 103.1Q191.8 103.8 191.8 104.9Q191.8 106.0 192.1 106.7Q192.4 107.5 193.0 107.9Q193.6 108.3 194.4 108.3L194.4 108.3Q195.2 108.3 195.7 108.0Q196.2 107.8 196.5 107.3L196.5 107.3Q196.8 106.8 196.8 106.2L196.8 106.2L194.6 106.2L194.6 104.6L198.8 104.6L198.8 105.8Q198.8 107.2 198.3 108.1Q197.7 109.1 196.7 109.6Q195.7 110.1 194.4 110.1ZM202.4 110L200.4 110L200.4 102.4L202.4 102.4L202.4 110ZM201.4 101.4L201.4 101.4Q200.9 101.4 200.6 101.1Q200.3 100.7 200.3 100.3L200.3 100.3Q200.3 99.9 200.6 99.6Q200.9 99.3 201.4 99.3L201.4 99.3Q201.9 99.3 202.2 99.6Q202.5 99.9 202.5 100.3L202.5 100.3Q202.5 100.7 202.2 101.1Q201.9 101.4 201.4 101.4ZM206.5 102.4L208.0 102.4L208.0 103.9L206.5 103.9L206.5 107.8Q206.5 108.1 206.7 108.3Q206.9 108.5 207.2 108.5L207.2 108.5Q207.4 108.5 207.6 108.4Q207.8 108.4 207.9 108.4L207.9 108.4L208.2 109.9Q207.8 110.0 207.5 110.1Q207.2 110.1 206.9 110.1L206.9 110.1Q205.7 110.1 205.1 109.5Q204.5 109.0 204.5 107.9L204.5 107.9L204.5 103.9L203.4 103.9L203.4 102.4L204.5 102.4L204.5 100.5L206.5 100.5L206.5 102.4Z "/></g><defs><clipPath id="satori_bc-id-2-1-1-2" clip-path="url(#satori_cp-id)"><path x="230" y="91" width="66" height="27" d="M236,91 h54 a6,6 0 0 1 6,6 v15 a6,6 0 0 1 -6,6 h-54 a6,6 0 0 1 -6,-6 v-15 a6,6 0 0 1 6,-6"/></clipPath></defs><mask id="satori_om-id-2-1-1-2"><rect x="231" y="92" width="64" height="25" fill="#fff" mask="url(#satori_om-id)"/><path width="66" height="27" fill="none" stroke="#000" stroke-width="2" d="M231.757,92.757 A6,6 0 0 1 236,91 h54 a6,6 0 0 1 6,6 v15 a6,6 0 0 1 -6,6 h-54 a6,6 0 0 1 -6,-6 v-15 A6,6 0 0 1 231.757,92.757"/></mask><path x="230" y="91" width="66" height="27" fill="#60a5fa15" d="M236,91 h54 a6,6 0 0 1 6,6 v15 a6,6 0 0 1 -6,6 h-54 a6,6 0 0 1 -6,-6 v-15 a6,6 0 0 1 6,-6" clip-path="url(#satori_cp-id)" mask="url(#satori_om-id)"/><path width="66" height="27" clip-path="url(#satori_bc-id-2-1-1-2)" fill="none" stroke="#60a5fa35" stroke-width="2" d="M231.757,92.757 A6,6 0 0 1 236,91 h54 a6,6 0 0 1 6,6 v15 a6,6 0 0 1 -6,6 h-54 a6,6 0 0 1 -6,-6 v-15 A6,6 0 0 1 231.757,92.757"/><g mask="url(#satori_om-id)" clip-path="url(#satori_cp-id)"><path fill="rgba(225,220,255,0.85)" d="M251.4 110L244.9 110L244.9 99.8L247.0 99.8L247.0 108.3L251.4 108.3L251.4 110ZM254.8 110L252.8 110L252.8 102.4L254.8 102.4L254.8 110ZM253.8 101.4L253.8 101.4Q253.4 101.4 253.0 101.1Q252.7 100.7 252.7 100.3L252.7 100.3Q252.7 99.9 253.0 99.6Q253.4 99.3 253.8 99.3L253.8 99.3Q254.3 99.3 254.6 99.6Q254.9 99.9 254.9 100.3L254.9 100.3Q254.9 100.7 254.6 101.1Q254.3 101.4 253.8 101.4ZM258.6 105.6L258.6 105.6L258.6 110L256.6 110L256.6 102.4L258.5 102.4L258.5 103.9Q258.8 103.2 259.3 102.8L259.3 102.8Q260.0 102.3 260.9 102.3L260.9 102.3Q261.7 102.3 262.3 102.6Q262.9 103.0 263.2 103.6Q263.6 104.2 263.6 105.1L263.6 105.1L263.6 110L261.5 110L261.5 105.5Q261.5 104.8 261.1 104.4Q260.8 104.0 260.1 104.0L260.1 104.0Q259.7 104.0 259.4 104.2Q259.0 104.4 258.8 104.7Q258.6 105.1 258.6 105.6ZM267.9 110.1L267.9 110.1Q267.1 110.1 266.5 109.8Q266.0 109.4 265.6 108.8Q265.3 108.1 265.3 107.2L265.3 107.2L265.3 102.4L267.4 102.4L267.4 106.9Q267.4 107.6 267.7 108.0Q268.1 108.4 268.7 108.4L268.7 108.4Q269.2 108.4 269.5 108.2Q269.8 108.0 270.0 107.6Q270.2 107.3 270.2 106.8L270.2 106.8L270.2 102.4L272.3 102.4L272.3 110L270.3 110L270.3 108.4Q270.0 109.1 269.5 109.6L269.5 109.6Q268.9 110.1 267.9 110.1ZM275.6 110L273.4 110L275.9 106.1L273.6 102.4L275.8 102.4L276.5 103.6Q276.8 104.2 277.1 104.7L277.1 104.7Q277.1 104.9 277.2 105.1L277.2 105.1Q277.3 104.9 277.4 104.7L277.4 104.7Q277.6 104.2 278.0 103.6L278.0 103.6L278.7 102.4L280.9 102.4L278.5 106.1L281.0 110L278.8 110L277.9 108.6Q277.6 108.0 277.3 107.4L277.3 107.4Q277.3 107.2 277.2 107.1L277.2 107.1Q277.1 107.2 277.0 107.4L277.0 107.4Q276.8 108.0 276.5 108.6L276.5 108.6L275.6 110Z "/></g><mask id="satori_om-id-2-2"><rect x="25" y="132" width="380" height="27" fill="#fff" mask="url(#satori_om-id)"/></mask><mask id="satori_om-id-2-2-0"><rect x="25" y="138" width="80" height="15" fill="#fff" mask="url(#satori_om-id)"/></mask><g mask="url(#satori_om-id)" clip-path="url(#satori_cp-id)"><path fill="#22d3ee" d="M31.3 150L25.8 150L25.8 141.3L27.6 141.3L27.6 148.5L31.3 148.5L31.3 150ZM39.4 150L33.6 150L33.6 141.3L39.4 141.3L39.4 142.8L35.4 142.8L35.4 144.9L39.1 144.9L39.1 146.3L35.4 146.3L35.4 148.5L39.4 148.5L39.4 150ZM43.3 150L41.4 150L44.3 141.3L46.7 141.3L49.7 150L47.8 150L47.1 148.0L44.0 148.0L43.3 150ZM44.4 146.6L46.6 146.6L46.4 145.8Q46.1 145.0 45.8 144L45.8 144Q45.7 143.4 45.5 142.7L45.5 142.7Q45.3 143.4 45.2 144.0L45.2 144.0Q44.9 145.0 44.7 145.8L44.7 145.8L44.4 146.6ZM53.6 150L51.8 150L51.8 141.3L55.2 141.3Q56.2 141.3 56.9 141.6Q57.6 142.0 58.0 142.6Q58.4 143.3 58.4 144.1Q58.4 145.0 58.0 145.6Q57.6 146.2 56.9 146.5L56.9 146.5Q56.9 146.6 56.8 146.6L56.8 146.6L58.7 150L56.7 150L55.0 146.9L53.6 146.9L53.6 150ZM53.6 142.7L53.6 145.4L54.9 145.4Q55.5 145.4 55.8 145.3Q56.2 145.1 56.3 144.8Q56.5 144.5 56.5 144.1L56.5 144.1Q56.5 143.7 56.3 143.4Q56.2 143.1 55.8 142.9Q55.4 142.7 54.9 142.7L54.9 142.7L53.6 142.7ZM62.5 150L60.7 150L60.7 141.3L62.7 141.3L65.5 145.7Q65.7 146.0 65.9 146.4Q66.1 146.8 66.3 147.3L66.3 147.3Q66.4 147.6 66.5 147.8L66.5 147.8Q66.5 147.6 66.5 147.4L66.5 147.4Q66.5 146.8 66.5 146.3Q66.4 145.8 66.4 145.5L66.4 145.5L66.4 141.3L68.3 141.3L68.3 150L66.3 150L63.8 146.0Q63.5 145.5 63.3 145.1Q63.0 144.7 62.8 144.2L62.8 144.2Q62.6 143.9 62.4 143.5L62.4 143.5Q62.4 143.8 62.5 144.2L62.5 144.2Q62.5 144.7 62.5 145.2Q62.5 145.7 62.5 146.0L62.5 146.0L62.5 150ZM70.9 141.3L72.6 141.3L72.6 150L70.9 150L70.9 141.3ZM77.0 150L75.2 150L75.2 141.3L77.2 141.3L80.0 145.7Q80.2 146.0 80.4 146.4Q80.6 146.8 80.8 147.3L80.8 147.3Q81.0 147.6 81.1 147.8L81.1 147.8Q81.1 147.6 81.0 147.4L81.0 147.4Q81.0 146.8 81.0 146.3Q81.0 145.8 81.0 145.5L81.0 145.5L81.0 141.3L82.8 141.3L82.8 150L80.8 150L78.3 146.0Q78.0 145.5 77.8 145.1Q77.5 144.7 77.3 144.2L77.3 144.2Q77.1 143.9 76.9 143.5L76.9 143.5Q77.0 143.8 77.0 144.2L77.0 144.2Q77.0 144.7 77.0 145.2Q77.0 145.7 77.0 146.0L77.0 146.0L77.0 150ZM89.2 150.1L89.2 150.1Q88.0 150.1 87.1 149.6Q86.2 149.0 85.6 148.0Q85.1 147.0 85.1 145.6L85.1 145.6Q85.1 144.2 85.7 143.2Q86.2 142.2 87.1 141.7Q88.0 141.2 89.2 141.2L89.2 141.2Q89.9 141.2 90.6 141.4Q91.2 141.6 91.7 142.0Q92.2 142.4 92.5 142.9Q92.8 143.4 92.9 144.1L92.9 144.1L91.1 144.1Q91.0 143.8 90.8 143.5Q90.7 143.3 90.4 143.1Q90.2 142.9 89.9 142.8Q89.6 142.7 89.2 142.7L89.2 142.7Q88.5 142.7 88.0 143.1Q87.5 143.4 87.2 144.1Q86.9 144.7 86.9 145.6Q86.9 146.6 87.2 147.2Q87.5 147.8 88.0 148.2Q88.5 148.5 89.2 148.5L89.2 148.5Q89.9 148.5 90.3 148.3Q90.8 148.1 91.0 147.6L91.0 147.6Q91.3 147.2 91.3 146.7L91.3 146.7L89.4 146.7L89.4 145.3L93.0 145.3L93.0 146.4Q93.0 147.6 92.5 148.4Q92.0 149.2 91.2 149.7Q90.3 150.1 89.2 150.1Z "/></g><mask id="satori_om-id-2-2-1"><rect x="117" y="132" width="78" height="27" fill="#fff" mask="url(#satori_om-id)"/></mask><defs><clipPath id="satori_bc-id-2-2-1-0" clip-path="url(#satori_cp-id)"><path x="117" y="132" width="78" height="27" d="M123,132 h66 a6,6 0 0 1 6,6 v15 a6,6 0 0 1 -6,6 h-66 a6,6 0 0 1 -6,-6 v-15 a6,6 0 0 1 6,-6"/></clipPath></defs><mask id="satori_om-id-2-2-1-0"><rect x="118" y="133" width="76" height="25" fill="#fff" mask="url(#satori_om-id)"/><path width="78" height="27" fill="none" stroke="#000" stroke-width="2" d="M118.757,133.757 A6,6 0 0 1 123,132 h66 a6,6 0 0 1 6,6 v15 a6,6 0 0 1 -6,6 h-66 a6,6 0 0 1 -6,-6 v-15 A6,6 0 0 1 118.757,133.757"/></mask><path x="117" y="132" width="78" height="27" fill="#22d3ee15" d="M123,132 h66 a6,6 0 0 1 6,6 v15 a6,6 0 0 1 -6,6 h-66 a6,6 0 0 1 -6,-6 v-15 a6,6 0 0 1 6,-6" clip-path="url(#satori_cp-id)" mask="url(#satori_om-id)"/><path width="78" height="27" clip-path="url(#satori_bc-id-2-2-1-0)" fill="none" stroke="#22d3ee35" stroke-width="2" d="M118.757,133.757 A6,6 0 0 1 123,132 h66 a6,6 0 0 1 6,6 v15 a6,6 0 0 1 -6,6 h-66 a6,6 0 0 1 -6,-6 v-15 A6,6 0 0 1 118.757,133.757"/><g mask="url(#satori_om-id)" clip-path="url(#satori_cp-id)"><path fill="rgba(225,220,255,0.85)" d="M135.5 151L135.5 151L131.9 151L131.9 140.8L135.5 140.8Q137.1 140.8 138.2 141.4Q139.3 142.0 139.9 143.2Q140.5 144.3 140.5 145.9L140.5 145.9Q140.5 147.5 139.9 148.6Q139.3 149.8 138.2 150.4Q137.1 151 135.5 151ZM134.0 142.6L134.0 149.2L135.4 149.2Q136.4 149.2 137.1 148.9Q137.7 148.5 138.1 147.8Q138.4 147.0 138.4 145.9L138.4 145.9Q138.4 144.8 138.1 144.0Q137.7 143.3 137.1 143.0Q136.4 142.6 135.4 142.6L135.4 142.6L134.0 142.6ZM145.4 151.2L145.4 151.2Q144.3 151.2 143.4 150.7Q142.6 150.2 142.1 149.3Q141.7 148.4 141.7 147.2L141.7 147.2Q141.7 146.0 142.1 145.1Q142.6 144.3 143.4 143.8Q144.3 143.3 145.4 143.3L145.4 143.3Q146.6 143.3 147.4 143.8Q148.2 144.3 148.7 145.1Q149.1 146.0 149.1 147.2L149.1 147.2Q149.1 148.4 148.7 149.3Q148.2 150.2 147.4 150.7Q146.6 151.2 145.4 151.2ZM145.4 149.5L145.4 149.5Q146.0 149.5 146.3 149.2Q146.7 148.9 146.9 148.4Q147.1 147.9 147.1 147.2L147.1 147.2Q147.1 146.5 146.9 146.0Q146.7 145.5 146.3 145.2Q146.0 144.9 145.4 144.9L145.4 144.9Q144.9 144.9 144.5 145.2Q144.1 145.5 143.9 146.0Q143.8 146.5 143.8 147.2L143.8 147.2Q143.8 147.9 143.9 148.4Q144.1 148.9 144.5 149.2Q144.9 149.5 145.4 149.5ZM154.0 151.2L154.0 151.2Q152.8 151.2 152.0 150.7Q151.2 150.2 150.7 149.3Q150.3 148.4 150.3 147.2L150.3 147.2Q150.3 146.0 150.7 145.1Q151.2 144.3 152.0 143.8Q152.8 143.3 154.0 143.3L154.0 143.3Q154.7 143.3 155.2 143.4Q155.8 143.6 156.3 143.9Q156.7 144.3 157.0 144.7Q157.3 145.2 157.4 145.8L157.4 145.8L155.5 146.2Q155.4 145.9 155.3 145.6Q155.2 145.4 155.0 145.2Q154.8 145.1 154.5 145.0Q154.3 144.9 154.0 144.9L154.0 144.9Q153.5 144.9 153.1 145.2Q152.7 145.5 152.5 146.0Q152.3 146.5 152.3 147.2L152.3 147.2Q152.3 147.9 152.5 148.4Q152.7 148.9 153.1 149.2Q153.5 149.5 154.0 149.5L154.0 149.5Q154.3 149.5 154.5 149.4Q154.8 149.4 155.0 149.2Q155.2 149.0 155.3 148.8Q155.4 148.5 155.5 148.2L155.5 148.2L157.4 148.6Q157.3 149.2 157.0 149.6Q156.7 150.1 156.3 150.5Q155.8 150.8 155.3 151.0Q154.7 151.2 154.0 151.2ZM160.9 151L158.8 151L158.8 140.8L160.9 140.8L160.9 146.3L161.0 146.3L163.5 143.4L165.8 143.4L163.0 146.7L166.0 151L163.6 151L161.4 147.9L160.9 148.5L160.9 151ZM170.4 151.2L170.4 151.2Q169.2 151.2 168.4 150.7Q167.5 150.2 167.1 149.3Q166.6 148.4 166.6 147.2L166.6 147.2Q166.6 146.0 167.1 145.1Q167.5 144.3 168.3 143.8Q169.2 143.3 170.3 143.3L170.3 143.3Q171.0 143.3 171.7 143.5Q172.3 143.7 172.8 144.2Q173.3 144.7 173.6 145.4Q173.9 146.2 173.9 147.1L173.9 147.1L173.9 147.7L168.6 147.7Q168.7 148.3 168.9 148.7L168.9 148.7Q169.1 149.2 169.5 149.4Q169.9 149.6 170.4 149.6L170.4 149.6Q170.8 149.6 171.1 149.5Q171.4 149.4 171.6 149.2Q171.8 149.0 171.9 148.7L171.9 148.7L173.8 149.1Q173.6 149.7 173.1 150.2Q172.7 150.6 172.0 150.9Q171.3 151.2 170.4 151.2ZM168.7 146.4L168.7 146.4L171.9 146.4Q171.9 146.0 171.7 145.7L171.7 145.7Q171.5 145.3 171.2 145.0Q170.8 144.8 170.3 144.8L170.3 144.8Q169.8 144.8 169.4 145.1Q169.0 145.3 168.8 145.7L168.8 145.7Q168.7 146.0 168.7 146.4ZM177.3 151L175.3 151L175.3 143.4L177.3 143.4L177.3 144.7L177.3 144.7Q177.5 144.0 178.0 143.6Q178.5 143.3 179.2 143.3L179.2 143.3Q179.3 143.3 179.5 143.3Q179.7 143.3 179.8 143.3L179.8 143.3L179.8 145.2Q179.7 145.1 179.4 145.1Q179.2 145.1 179.0 145.1L179.0 145.1Q178.5 145.1 178.1 145.3Q177.7 145.5 177.5 145.8Q177.3 146.2 177.3 146.7L177.3 146.7L177.3 151Z "/></g></svg>