<!-- Generated by readme-aura https://github.com/collectioneur/readme-aura -->
<svg width="860" height="210" viewBox="0 0 860 210" xmlns="http://www.w3.org/2000/svg"><defs><clipPath id="satori_bc-id"><path x="0" y="0" width="860" height="210" d="M16,0 h828 a16,16 0 0 1 16,16 v178 a16,16 0 0 1 -16,16 h-828 a16,16 0 0 1 -16,-16 v-178 a16,16 0 0 1 16,-16"/></clipPath></defs><clipPath id="satori_cp-id"><path x="0" y="0" width="860" height="210" d="M16,0 h828 a16,16 0 0 1 16,16 v178 a16,16 0 0 1 -16,16 h-828 a16,16 0 0 1 -16,-16 v-178 a16,16 0 0 1 16,-16"/></clipPath><mask id="satori_om-id"><rect x="1" y="1" width="858" height="208" fill="#fff"/><path width="860" height="210" fill="none" stroke="#000" stroke-width="2" d="M4.686,4.686 A16,16 0 0 1 16,0 h828 a16,16 0 0 1 16,16 v178 a16,16 0 0 1 -16,16 h-828 a16,16 0 0 1 -16,-16 v-178 A16,16 0 0 1 4.686,4.686"/></mask><path x="0" y="0" width="860" height="210" fill="#08080c" d="M16,0 h828 a16,16 0 0 1 16,16 v178 a16,16 0 0 1 -16,16 h-828 a16,16 0 0 1 -16,-16 v-178 a16,16 0 0 1 16,-16"/><path width="860" height="210" clip-path="url(#satori_bc-id)" fill="none" stroke="rgba(110,80,220,0.18)" stroke-width="2" d="M4.686,4.686 A16,16 0 0 1 16,0 h828 a16,16 0 0 1 16,16 v178 a16,16 0 0 1 -16,16 h-828 a16,16 0 0 1 -16,-16 v-178 A16,16 0 0 1 4.686,4.686"/><clipPath id="satori_cp-id-0" clip-path="url(#satori_cp-id)"><rect x="1" y="1" width="860" height="210"/></clipPath><mask id="satori_om-id-0"><rect x="1" y="1" width="860" height="210" fill="#fff" mask="url(#satori_om-id)"/></mask><svg x="1" y="1" width="860" height="210" preserveAspectRatio="none" clip-path="url(#satori_cp-id-0)" mask="url(#satori_om-id-0)"><defs><radialGradient id="g1" cx="50%" cy="50%" r="50%"><stop offset="0%" stop-color="rgba(115,20,215,0.68)"></stop><stop offset="42%" stop-color="rgba(85,15,175,0.30)"></stop><stop offset="70%" stop-color="rgba(85,15,175,0)"></stop></radialGradient><radialGradient id="g2" cx="50%" cy="50%" r="50%"><stop offset="0%" stop-color="rgba(55,55,255,0.55)"></stop><stop offset="45%" stop-color="rgba(35,45,210,0.22)"></stop><stop offset="70%" stop-color="rgba(35,45,210,0)"></stop></radialGradient><radialGradient id="g3" cx="50%" cy="50%" r="50%"><stop offset="0%" stop-color="rgba(0,130,255,0.42)"></stop><stop offset="50%" stop-color="rgba(0,100,220,0.16)"></stop><stop offset="70%" stop-color="rgba(0,100,220,0)"></stop></radialGradient><radialGradient id="g4" cx="50%" cy="50%" r="50%"><stop offset="0%" stop-color="rgba(0,185,240,0.32)"></stop><stop offset="70%" stop-color="rgba(0,185,240,0)"></stop></radialGradient><radialGradient id="g5" cx="50%" cy="50%" r="50%"><stop offset="0%" stop-color="rgba(100,25,205,0.42)"></stop><stop offset="70%" stop-color="rgba(100,25,205,0)"></stop></radialGradient><radialGradient id="g6" cx="50%" cy="50%" r="50%"><stop offset="0%" stop-color="rgba(60,80,255,0.35)"></stop><stop offset="70%" stop-color="rgba(60,80,255,0)"></stop></radialGradient></defs><ellipse id="glow-1" cx="170" cy="168" rx="260" ry="170" fill="url(#g1)"></ellipse><ellipse id="glow-2" cx="320" cy="178" rx="220" ry="140" fill="url(#g2)"></ellipse><ellipse id="glow-3" cx="460" cy="178" rx="190" ry="130" fill="url(#g3)"></ellipse><ellipse id="glow-4" cx="590" cy="188" rx="160" ry="110" fill="url(#g4)"></ellipse><ellipse id="glow-5" cx="750" cy="188" rx="140" ry="100" fill="url(#g5)"></ellipse><ellipse id="glow-6" cx="420" cy="138" rx="100" ry="80" fill="url(#g6)"></ellipse><style>

         @keyframes float-slow {
           0%, 100% { transform: translateX(0px); opacity: 0.8; }
           50% { transform: translateX(350px); opacity: 1.2; }
         }
         @keyframes float-medium {
           0%, 100% { transform: translateX(0px); opacity: 0.7; }
           50% { transform: translateX(-250px); opacity: 1.1; }
         }
         @keyframes float-fast {
           0%, 100% { transform: translateX(0px); opacity: 0.9; }
           50% { transform: translateX(200px); opacity: 0.6; }
         }
         @keyframes float-diagonal {
           0%, 100% { transform: translate(0px, 0px); opacity: 0.75; }
           50% { transform: translate(120px, 30px); opacity: 1.0; }
         }
         @keyframes float-wave {
           0%, 100% { transform: translateX(0px); opacity: 0.65; }
           33% { transform: translateX(-160px); opacity: 0.9; }
           66% { transform: translateX(80px); opacity: 1.0; }
         }
         @keyframes float-pulse {
           0%, 100% { transform: scale(1); opacity: 0.8; }
           50% { transform: scale(1.3); opacity: 0.4; }
         }
         #glow-1 { animation: float-slow 9s ease-in-out infinite; }
         #glow-2 { animation: float-medium 12s ease-in-out infinite; }
         #glow-3 { animation: float-fast 8s ease-in-out infinite; }
         #glow-4 { animation: float-diagonal 11s ease-in-out infinite reverse; }
         #glow-5 { animation: float-wave 14s ease-in-out infinite reverse; }
         #glow-6 { animation: float-pulse 6s ease-in-out infinite; }

</style>
</svg><mask id="satori_om-id-0-0"><rect x="1" y="1" width="0" height="210" fill="#fff" mask="url(#satori_om-id)"/></mask><mask id="satori_om-id-0-0-0"><rect x="1" y="1" width="0" height="210" fill="#fff" mask="url(#satori_om-id)"/></mask><mask id="satori_om-id-0-0-0-0"><rect x="1" y="1" width="0" height="210" fill="#fff" mask="url(#satori_om-id)"/></mask><mask id="satori_om-id-0-0-0-1"><rect x="1" y="1" width="0" height="210" fill="#fff" mask="url(#satori_om-id)"/></mask><mask id="satori_om-id-0-0-0-2"><rect x="1" y="1" width="0" height="210" fill="#fff" mask="url(#satori_om-id)"/></mask><mask id="satori_om-id-0-0-1"><rect x="1" y="1" width="0" height="210" fill="#fff" mask="url(#satori_om-id)"/></mask><mask id="satori_om-id-0-0-1-0"><rect x="1" y="1" width="0" height="210" fill="#fff" mask="url(#satori_om-id)"/></mask><mask id="satori_om-id-0-0-1-1"><rect x="1" y="1" width="0" height="210" fill="#fff" mask="url(#satori_om-id)"/></mask><mask id="satori_om-id-0-0-1-2"><rect x="1" y="1" width="0" height="210" fill="#fff" mask="url(#satori_om-id)"/></mask><mask id="satori_om-id-0-0-2"><rect x="1" y="1" width="0" height="210" fill="#fff" mask="url(#satori_om-id)"/></mask><mask id="satori_om-id-0-0-2-0"><rect x="1" y="1" width="0" height="210" fill="#fff" mask="url(#satori_om-id)"/></mask><mask id="satori_om-id-0-0-2-1"><rect x="1" y="1" width="0" height="210" fill="#fff" mask="url(#satori_om-id)"/></mask><mask id="satori_om-id-0-0-2-2"><rect x="1" y="1" width="0" height="210" fill="#fff" mask="url(#satori_om-id)"/></mask><mask id="satori_om-id-0-0-3"><rect x="1" y="1" width="0" height="210" fill="#fff" mask="url(#satori_om-id)"/></mask><mask id="satori_om-id-0-0-3-0"><rect x="1" y="1" width="0" height="210" fill="#fff" mask="url(#satori_om-id)"/></mask><mask id="satori_om-id-0-0-3-1"><rect x="1" y="1" width="0" height="210" fill="#fff" mask="url(#satori_om-id)"/></mask><mask id="satori_om-id-0-0-4"><rect x="1" y="1" width="0" height="210" fill="#fff" mask="url(#satori_om-id)"/></mask><mask id="satori_om-id-0-0-4-0"><rect x="1" y="1" width="0" height="210" fill="#fff" mask="url(#satori_om-id)"/></mask><mask id="satori_om-id-0-0-4-1"><rect x="1" y="1" width="0" height="210" fill="#fff" mask="url(#satori_om-id)"/></mask><mask id="satori_om-id-0-0-5"><rect x="1" y="1" width="0" height="210" fill="#fff" mask="url(#satori_om-id)"/></mask><mask id="satori_om-id-0-0-5-0"><rect x="1" y="1" width="0" height="210" fill="#fff" mask="url(#satori_om-id)"/></mask><mask id="satori_om-id-0-0-5-1"><rect x="1" y="1" width="0" height="210" fill="#fff" mask="url(#satori_om-id)"/></mask><mask id="satori_om-id-0-1"><rect x="1" y="1" width="0" height="210" fill="#fff" mask="url(#satori_om-id)"/></mask><mask id="satori_om-id-0-2"><rect x="1" y="1" width="0" height="210" fill="#fff" mask="url(#satori_om-id)"/></mask><mask id="satori_om-id-0-3"><rect x="1" y="1" width="0" height="210" fill="#fff" mask="url(#satori_om-id)"/></mask><mask id="satori_om-id-0-4"><rect x="1" y="1" width="0" height="210" fill="#fff" mask="url(#satori_om-id)"/></mask><mask id="satori_om-id-0-5"><rect x="1" y="1" width="0" height="210" fill="#fff" mask="url(#satori_om-id)"/></mask><mask id="satori_om-id-0-6"><rect x="1" y="1" width="0" height="210" fill="#fff" mask="url(#satori_om-id)"/></mask><mask id="satori_om-id-1"><rect x="33" y="19" width="794" height="12" fill="#fff" mask="url(#satori_om-id)"/></mask><g mask="url(#satori_om-id)" clip-path="url(#satori_cp-id)"><path fill="rgba(155,140,210,0.5)" d="M35.6 23.0L33.4 23.0L33.4 21.7L39.3 21.7L39.3 23.0L37.1 23.0L37.1 29L35.6 29L35.6 23.0ZM48.2 29L43.3 29L43.3 21.7L48.2 21.7L48.2 23.0L44.8 23.0L44.8 24.7L47.9 24.7L47.9 25.9L44.8 25.9L44.8 27.8L48.2 27.8L48.2 29ZM55.6 29.1L55.6 29.1Q54.6 29.1 53.9 28.7Q53.1 28.2 52.6 27.4Q52.2 26.5 52.2 25.4L52.2 25.4Q52.2 24.2 52.7 23.3Q53.1 22.5 53.9 22.1Q54.6 21.6 55.6 21.6L55.6 21.6Q56.2 21.6 56.7 21.8Q57.3 22.0 57.7 22.3Q58.1 22.6 58.4 23.1Q58.6 23.6 58.7 24.2L58.7 24.2L57.2 24.2Q57.2 23.9 57.0 23.7Q56.9 23.4 56.7 23.3Q56.5 23.1 56.2 23.0Q55.9 23.0 55.6 23.0L55.6 23.0Q55.0 23.0 54.6 23.2Q54.2 23.5 54.0 24.1Q53.7 24.6 53.7 25.4L53.7 25.4Q53.7 26.2 54.0 26.7Q54.2 27.2 54.6 27.5Q55.0 27.8 55.6 27.8L55.6 27.8Q55.9 27.8 56.2 27.7Q56.5 27.6 56.7 27.4Q56.9 27.3 57.0 27.0Q57.2 26.8 57.2 26.5L57.2 26.5L58.7 26.5Q58.7 27.0 58.4 27.5Q58.2 27.9 57.8 28.3Q57.4 28.7 56.8 28.9Q56.3 29.1 55.6 29.1ZM64.3 29L62.8 29L62.8 21.7L64.5 21.7L66.8 25.4Q66.9 25.7 67.1 26.0Q67.3 26.4 67.5 26.8L67.5 26.8Q67.6 27.0 67.7 27.2L67.7 27.2Q67.7 27.0 67.7 26.8L67.7 26.8Q67.6 26.3 67.6 25.9Q67.6 25.5 67.6 25.2L67.6 25.2L67.6 21.7L69.1 21.7L69.1 29L67.4 29L65.4 25.7Q65.1 25.3 64.9 24.9Q64.7 24.6 64.5 24.1L64.5 24.1Q64.4 23.9 64.2 23.6L64.2 23.6Q64.3 23.9 64.3 24.1L64.3 24.1Q64.3 24.6 64.3 25.0Q64.3 25.4 64.3 25.7L64.3 25.7L64.3 29ZM76.6 29.1L76.6 29.1Q75.7 29.1 74.9 28.7Q74.1 28.2 73.7 27.4Q73.2 26.5 73.2 25.4L73.2 25.4Q73.2 24.2 73.7 23.3Q74.1 22.5 74.9 22.1Q75.7 21.6 76.6 21.6L76.6 21.6Q77.6 21.6 78.4 22.1Q79.1 22.5 79.6 23.3Q80.0 24.2 80.0 25.4L80.0 25.4Q80.0 26.5 79.6 27.4Q79.1 28.2 78.4 28.7Q77.6 29.1 76.6 29.1ZM76.6 27.8L76.6 27.8Q77.2 27.8 77.6 27.5Q78.0 27.2 78.3 26.7Q78.5 26.1 78.5 25.4L78.5 25.4Q78.5 24.6 78.3 24.0Q78.0 23.5 77.6 23.2Q77.2 23.0 76.6 23.0L76.6 23.0Q76.1 23.0 75.6 23.2Q75.2 23.5 75.0 24.0Q74.7 24.6 74.7 25.4L74.7 25.4Q74.7 26.1 75.0 26.7Q75.2 27.2 75.6 27.5Q76.1 27.8 76.6 27.8ZM88.8 29L84.1 29L84.1 21.7L85.6 21.7L85.6 27.8L88.8 27.8L88.8 29ZM96.0 29.1L96.0 29.1Q95.0 29.1 94.2 28.7Q93.5 28.2 93.0 27.4Q92.6 26.5 92.6 25.4L92.6 25.4Q92.6 24.2 93.0 23.3Q93.5 22.5 94.2 22.1Q95.0 21.6 96.0 21.6L96.0 21.6Q96.9 21.6 97.7 22.1Q98.5 22.5 98.9 23.3Q99.4 24.2 99.4 25.4L99.4 25.4Q99.4 26.5 98.9 27.4Q98.5 28.2 97.7 28.7Q96.9 29.1 96.0 29.1ZM96.0 27.8L96.0 27.8Q96.5 27.8 97.0 27.5Q97.4 27.2 97.6 26.7Q97.9 26.1 97.9 25.4L97.9 25.4Q97.9 24.6 97.6 24.0Q97.4 23.5 97.0 23.2Q96.5 23.0 96.0 23.0L96.0 23.0Q95.4 23.0 95.0 23.2Q94.6 23.5 94.3 24.0Q94.1 24.6 94.1 25.4L94.1 25.4Q94.1 26.1 94.3 26.7Q94.6 27.2 95.0 27.5Q95.4 27.8 96.0 27.8ZM106.7 29.1L106.7 29.1Q105.7 29.1 104.9 28.6Q104.2 28.2 103.7 27.4Q103.3 26.5 103.3 25.4L103.3 25.4Q103.3 24.2 103.7 23.4Q104.2 22.5 105.0 22.1Q105.7 21.6 106.7 21.6L106.7 21.6Q107.3 21.6 107.8 21.8Q108.4 22.0 108.8 22.3Q109.2 22.6 109.4 23.1Q109.7 23.5 109.8 24.1L109.8 24.1L108.3 24.1Q108.2 23.8 108.1 23.6Q107.9 23.4 107.7 23.2Q107.5 23.1 107.3 23.0Q107.0 23.0 106.7 23.0L106.7 23.0Q106.1 23.0 105.7 23.2Q105.3 23.5 105.0 24.0Q104.8 24.6 104.8 25.4Q104.8 26.1 105.0 26.7Q105.3 27.2 105.7 27.5Q106.1 27.8 106.7 27.8L106.7 27.8Q107.3 27.8 107.6 27.6Q108.0 27.4 108.2 27.0L108.2 27.0Q108.4 26.7 108.4 26.3L108.4 26.3L106.8 26.3L106.8 25.1L109.9 25.1L109.9 26.0Q109.9 27.0 109.4 27.7Q109.0 28.4 108.3 28.7Q107.6 29.1 106.7 29.1ZM114.0 21.7L115.5 21.7L115.5 29L114.0 29L114.0 21.7ZM121.0 29L119.4 29L121.9 21.7L123.8 21.7L126.4 29L124.7 29L124.2 27.3L121.6 27.3L121.0 29ZM121.9 26.1L123.8 26.1L123.5 25.5Q123.3 24.8 123.1 24L123.1 24Q123.0 23.5 122.8 22.9L122.8 22.9Q122.7 23.5 122.6 24.0L122.6 24.0Q122.4 24.8 122.2 25.5L122.2 25.5L121.9 26.1ZM132.9 29.1L132.9 29.1Q132.1 29.1 131.4 28.8Q130.8 28.6 130.4 28.0Q130.0 27.5 130.0 26.7L130.0 26.7L131.5 26.7Q131.5 27.1 131.7 27.4Q131.9 27.6 132.2 27.7Q132.5 27.8 132.9 27.8L132.9 27.8Q133.3 27.8 133.6 27.7Q133.9 27.6 134.1 27.4Q134.2 27.2 134.2 26.9L134.2 26.9Q134.2 26.7 134.1 26.5Q133.9 26.3 133.7 26.2Q133.4 26.1 133.0 26.0L133.0 26.0L132.2 25.8Q131.3 25.6 130.7 25.1Q130.2 24.6 130.2 23.8L130.2 23.8Q130.2 23.2 130.6 22.7Q130.9 22.2 131.5 21.9Q132.2 21.6 133.0 21.6L133.0 21.6Q133.8 21.6 134.4 21.9Q135.0 22.2 135.3 22.7Q135.6 23.2 135.6 23.8L135.6 23.8L134.2 23.8Q134.2 23.4 133.8 23.1Q133.5 22.9 132.9 22.9L132.9 22.9Q132.6 22.9 132.3 23.0Q132.0 23.1 131.9 23.3Q131.8 23.5 131.8 23.7L131.8 23.7Q131.8 24.0 131.9 24.2Q132.1 24.3 132.3 24.5Q132.6 24.6 132.9 24.6L132.9 24.6L133.6 24.8Q134.0 24.9 134.4 25.1Q134.8 25.3 135.1 25.5Q135.4 25.8 135.6 26.1Q135.7 26.5 135.7 26.9L135.7 26.9Q135.7 27.6 135.4 28.1Q135.1 28.6 134.5 28.8Q133.8 29.1 132.9 29.1Z "/></g><mask id="satori_om-id-2"><rect x="33" y="45" width="794" height="103" fill="#fff" mask="url(#satori_om-id)"/></mask><mask id="satori_om-id-2-0"><rect x="33" y="45" width="794" height="25" fill="#fff" mask="url(#satori_om-id)"/></mask><mask id="satori_om-id-2-0-0"><rect x="33" y="52" width="90" height="12" fill="#fff" mask="url(#satori_om-id)"/></mask><g mask="url(#satori_om-id)" clip-path="url(#satori_cp-id)"><path fill="#a78bfa" d="M38.3 62L33.7 62L33.7 54.7L35.1 54.7L35.1 60.8L38.3 60.8L38.3 62ZM40.3 54.7L41.8 54.7L41.8 62L40.3 62L40.3 54.7ZM45.6 62L44.1 62L44.1 54.7L45.8 54.7L48.1 58.4Q48.3 58.7 48.4 59.0Q48.6 59.4 48.8 59.8L48.8 59.8Q48.9 60.0 49.0 60.2L49.0 60.2Q49.0 60.0 49.0 59.8L49.0 59.8Q48.9 59.3 48.9 58.9Q48.9 58.5 48.9 58.2L48.9 58.2L48.9 54.7L50.4 54.7L50.4 62L48.8 62L46.7 58.7Q46.4 58.3 46.2 57.9Q46.0 57.6 45.8 57.1L45.8 57.1Q45.7 56.9 45.5 56.6L45.5 56.6Q45.6 56.9 45.6 57.1L45.6 57.1Q45.6 57.6 45.6 58.0Q45.6 58.4 45.6 58.7L45.6 58.7L45.6 62ZM56.0 62.1L56.0 62.1Q54.9 62.1 54.2 61.6Q53.4 61.2 53.0 60.4Q52.5 59.5 52.5 58.4L52.5 58.4Q52.5 57.2 53.0 56.4Q53.4 55.5 54.2 55.1Q55.0 54.6 55.9 54.6L55.9 54.6Q56.5 54.6 57.1 54.8Q57.6 55.0 58.0 55.3Q58.4 55.6 58.7 56.1Q59.0 56.5 59.0 57.1L59.0 57.1L57.5 57.1Q57.4 56.8 57.3 56.6Q57.2 56.4 57.0 56.2Q56.8 56.1 56.5 56.0Q56.3 56.0 56.0 56.0L56.0 56.0Q55.4 56.0 55.0 56.2Q54.5 56.5 54.3 57.0Q54.1 57.6 54.1 58.4Q54.1 59.1 54.3 59.7Q54.5 60.2 55.0 60.5Q55.4 60.8 56.0 60.8L56.0 60.8Q56.5 60.8 56.9 60.6Q57.3 60.4 57.5 60.0L57.5 60.0Q57.7 59.7 57.7 59.3L57.7 59.3L56.1 59.3L56.1 58.1L59.1 58.1L59.1 59.0Q59.1 60.0 58.7 60.7Q58.3 61.4 57.6 61.7Q56.9 62.1 56.0 62.1ZM64.2 62.1L64.2 62.1Q63.3 62.1 62.7 61.8Q62.0 61.4 61.6 60.8Q61.2 60.2 61.2 59.4L61.2 59.4L61.2 54.7L62.7 54.7L62.7 59.3Q62.7 59.7 62.9 60.1Q63.1 60.4 63.5 60.6Q63.8 60.8 64.2 60.8L64.2 60.8Q64.7 60.8 65.0 60.6Q65.4 60.4 65.6 60.1Q65.8 59.7 65.8 59.3L65.8 59.3L65.8 54.7L67.3 54.7L67.3 59.4Q67.3 60.2 66.9 60.8Q66.5 61.4 65.8 61.8Q65.1 62.1 64.2 62.1ZM70.8 62L69.1 62L71.6 54.7L73.6 54.7L76.1 62L74.5 62L73.9 60.3L71.3 60.3L70.8 62ZM71.7 59.1L73.5 59.1L73.3 58.5Q73.1 57.8 72.9 57L72.9 57Q72.7 56.5 72.6 55.9L72.6 55.9Q72.4 56.5 72.3 57.0L72.3 57.0Q72.1 57.8 71.9 58.5L71.9 58.5L71.7 59.1ZM81.3 62.1L81.3 62.1Q80.2 62.1 79.5 61.6Q78.7 61.2 78.3 60.4Q77.8 59.5 77.8 58.4L77.8 58.4Q77.8 57.2 78.3 56.4Q78.7 55.5 79.5 55.1Q80.3 54.6 81.2 54.6L81.2 54.6Q81.8 54.6 82.4 54.8Q82.9 55.0 83.3 55.3Q83.7 55.6 84.0 56.1Q84.2 56.5 84.3 57.1L84.3 57.1L82.8 57.1Q82.7 56.8 82.6 56.6Q82.5 56.4 82.3 56.2Q82.1 56.1 81.8 56.0Q81.5 56.0 81.2 56.0L81.2 56.0Q80.7 56.0 80.3 56.2Q79.8 56.5 79.6 57.0Q79.3 57.6 79.3 58.4Q79.3 59.1 79.6 59.7Q79.8 60.2 80.3 60.5Q80.7 60.8 81.3 60.8L81.3 60.8Q81.8 60.8 82.2 60.6Q82.5 60.4 82.8 60.0L82.8 60.0Q82.9 59.7 83.0 59.3L83.0 59.3L81.4 59.3L81.4 58.1L84.4 58.1L84.4 59.0Q84.4 60.0 84.0 60.7Q83.6 61.4 82.9 61.7Q82.2 62.1 81.3 62.1ZM91.4 62L86.5 62L86.5 54.7L91.4 54.7L91.4 56.0L88.0 56.0L88.0 57.7L91.2 57.7L91.2 58.9L88.0 58.9L88.0 60.8L91.4 60.8L91.4 62ZM95.1 62L93.6 62L93.6 54.7L95.3 54.7L97.6 58.4Q97.7 58.7 97.9 59.0Q98.1 59.4 98.3 59.8L98.3 59.8Q98.4 60.0 98.5 60.2L98.5 60.2Q98.5 60.0 98.5 59.8L98.5 59.8Q98.4 59.3 98.4 58.9Q98.4 58.5 98.4 58.2L98.4 58.2L98.4 54.7L99.9 54.7L99.9 62L98.3 62L96.2 58.7Q95.9 58.3 95.7 57.9Q95.5 57.6 95.3 57.1L95.3 57.1Q95.2 56.9 95.0 56.6L95.0 56.6Q95.1 56.9 95.1 57.1L95.1 57.1Q95.1 57.6 95.1 58.0Q95.1 58.4 95.1 58.7L95.1 58.7L95.1 62ZM104.9 62.1L104.9 62.1Q104.0 62.1 103.4 61.8Q102.7 61.6 102.4 61.0Q102.0 60.5 102.0 59.7L102.0 59.7L103.4 59.7Q103.5 60.1 103.7 60.4Q103.9 60.6 104.2 60.7Q104.5 60.8 104.9 60.8L104.9 60.8Q105.3 60.8 105.6 60.7Q105.9 60.6 106.0 60.4Q106.2 60.2 106.2 59.9L106.2 59.9Q106.2 59.7 106.1 59.5Q105.9 59.3 105.6 59.2Q105.4 59.1 105.0 59.0L105.0 59.0L104.2 58.8Q103.2 58.6 102.7 58.1Q102.2 57.6 102.2 56.8L102.2 56.8Q102.2 56.2 102.5 55.7Q102.9 55.2 103.5 54.9Q104.1 54.6 104.9 54.6L104.9 54.6Q105.7 54.6 106.3 54.9Q106.9 55.2 107.3 55.7Q107.6 56.2 107.6 56.8L107.6 56.8L106.2 56.8Q106.1 56.4 105.8 56.1Q105.5 55.9 104.9 55.9L104.9 55.9Q104.5 55.9 104.3 56.0Q104.0 56.1 103.9 56.3Q103.7 56.5 103.7 56.7L103.7 56.7Q103.7 57.0 103.9 57.2Q104.0 57.3 104.3 57.5Q104.6 57.6 104.9 57.6L104.9 57.6L105.5 57.8Q106.0 57.9 106.4 58.1Q106.8 58.3 107.1 58.5Q107.4 58.8 107.5 59.1Q107.7 59.5 107.7 59.9L107.7 59.9Q107.7 60.6 107.4 61.1Q107.0 61.6 106.4 61.8Q105.8 62.1 104.9 62.1Z "/></g><mask id="satori_om-id-2-0-1"><rect x="139" y="45" width="129" height="25" fill="#fff" mask="url(#satori_om-id)"/></mask><defs><clipPath id="satori_bc-id-2-0-1-0" clip-path="url(#satori_cp-id)"><path x="139" y="45" width="70" height="25" d="M145,45 h58 a6,6 0 0 1 6,6 v13 a6,6 0 0 1 -6,6 h-58 a6,6 0 0 1 -6,-6 v-13 a6,6 0 0 1 6,-6"/></clipPath></defs><mask id="satori_om-id-2-0-1-0"><rect x="140" y="46" width="68" height="23" fill="#fff" mask="url(#satori_om-id)"/><path width="70" height="25" fill="none" stroke="#000" stroke-width="2" d="M140.757,46.757 A6,6 0 0 1 145,45 h58 a6,6 0 0 1 6,6 v13 a6,6 0 0 1 -6,6 h-58 a6,6 0 0 1 -6,-6 v-13 A6,6 0 0 1 140.757,46.757"/></mask><path x="139" y="45" width="70" height="25" fill="#a78bfa15" d="M145,45 h58 a6,6 0 0 1 6,6 v13 a6,6 0 0 1 -6,6 h-58 a6,6 0 0 1 -6,-6 v-13 a6,6 0 0 1 6,-6" clip-path="url(#satori_cp-id)" mask="url(#satori_om-id)"/><path width="70" height="25" clip-path="url(#satori_bc-id-2-0-1-0)" fill="none" stroke="#a78bfa35" stroke-width="2" d="M140.757,46.757 A6,6 0 0 1 145,45 h58 a6,6 0 0 1 6,6 v13 a6,6 0 0 1 -6,6 h-58 a6,6 0 0 1 -6,-6 v-13 A6,6 0 0 1 140.757,46.757"/><g mask="url(#satori_om-id)" clip-path="url(#satori_cp-id)"><path fill="rgba(225,220,255,0.85)" d="M155.6 62L153.8 62L153.8 53.3L157.2 53.3Q158.2 53.3 158.9 53.6Q159.6 54.0 160.0 54.7Q160.3 55.4 160.3 56.2L160.3 56.2Q160.3 57.1 159.9 57.7Q159.6 58.4 158.9 58.8Q158.2 59.1 157.2 59.1L157.2 59.1L155.6 59.1L155.6 62ZM155.6 54.7L155.6 57.7L156.9 57.7Q157.4 57.7 157.8 57.5Q158.1 57.3 158.3 57.0Q158.5 56.7 158.5 56.2Q158.5 55.8 158.3 55.4Q158.1 55.1 157.8 54.9Q157.4 54.7 156.9 54.7L156.9 54.7L155.6 54.7ZM161.5 64.3L161.5 64.3L161.9 63.0L162.1 63.0Q162.5 63.1 162.7 63.1Q163.0 63.1 163.2 62.9Q163.3 62.7 163.4 62.4L163.4 62.4L163.4 62.0L161.0 55.4L162.8 55.4L163.9 58.8Q164.1 59.5 164.3 60.1L164.3 60.1Q164.3 60.4 164.3 60.6L164.3 60.6Q164.4 60.4 164.4 60.1L164.4 60.1Q164.6 59.5 164.8 58.8L164.8 58.8L166.0 55.4L167.8 55.4L165.0 62.8Q164.8 63.3 164.5 63.7Q164.2 64.1 163.7 64.3Q163.3 64.5 162.6 64.5L162.6 64.5Q162.3 64.5 162.0 64.4Q161.7 64.4 161.5 64.3ZM170.8 55.4L172.0 55.4L172.0 56.8L170.8 56.8L170.8 60.1Q170.8 60.4 170.9 60.5Q171.1 60.7 171.4 60.7L171.4 60.7Q171.5 60.7 171.7 60.7Q171.8 60.6 171.9 60.6L171.9 60.6L172.2 61.9Q171.9 62.0 171.6 62.1Q171.3 62.1 171.0 62.1L171.0 62.1Q170.1 62.1 169.5 61.6Q169.0 61.1 169.0 60.2L169.0 60.2L169.0 56.8L168.1 56.8L168.1 55.4L169.0 55.4L169.0 53.9L170.8 53.9L170.8 55.4ZM174.9 58.2L174.9 58.2L174.9 62L173.1 62L173.1 53.3L174.9 53.3L174.9 56.7Q175.1 56.2 175.5 55.8L175.5 55.8Q176.0 55.4 176.9 55.4L176.9 55.4Q177.5 55.4 178.1 55.7Q178.6 56.0 178.8 56.5Q179.1 57.1 179.1 57.8L179.1 57.8L179.1 62L177.4 62L177.4 58.1Q177.4 57.5 177.0 57.2Q176.7 56.8 176.2 56.8L176.2 56.8Q175.8 56.8 175.5 57.0Q175.2 57.2 175.1 57.5Q174.9 57.8 174.9 58.2ZM183.5 62.1L183.5 62.1Q182.6 62.1 181.8 61.7Q181.1 61.3 180.7 60.5Q180.3 59.8 180.3 58.8L180.3 58.8Q180.3 57.7 180.7 57.0Q181.1 56.2 181.8 55.8Q182.6 55.4 183.5 55.4L183.5 55.4Q184.5 55.4 185.3 55.8Q186.0 56.2 186.4 57.0Q186.8 57.7 186.8 58.8L186.8 58.8Q186.8 59.8 186.4 60.5Q186.0 61.3 185.3 61.7Q184.5 62.1 183.5 62.1ZM183.5 60.7L183.5 60.7Q184.0 60.7 184.3 60.5Q184.6 60.2 184.8 59.8Q185.0 59.3 185.0 58.7L185.0 58.7Q185.0 58.2 184.8 57.7Q184.6 57.3 184.3 57.0Q184.0 56.8 183.5 56.8L183.5 56.8Q183.1 56.8 182.8 57.0Q182.4 57.3 182.3 57.7Q182.1 58.2 182.1 58.7L182.1 58.7Q182.1 59.3 182.3 59.8Q182.4 60.2 182.8 60.5Q183.1 60.7 183.5 60.7ZM189.7 58.2L189.7 58.2L189.7 62L188.0 62L188.0 55.4L189.6 55.4L189.7 56.8Q189.9 56.2 190.3 55.8L190.3 55.8Q190.9 55.4 191.7 55.4L191.7 55.4Q192.4 55.4 192.9 55.7Q193.4 56.0 193.7 56.5Q193.9 57.1 193.9 57.8L193.9 57.8L193.9 62L192.2 62L192.2 58.1Q192.2 57.5 191.9 57.2Q191.6 56.8 191.0 56.8L191.0 56.8Q190.6 56.8 190.3 57.0Q190.1 57.2 189.9 57.5Q189.7 57.8 189.7 58.2Z "/></g><defs><clipPath id="satori_bc-id-2-0-1-1" clip-path="url(#satori_cp-id)"><path x="216" y="45" width="52" height="25" d="M222,45 h40 a6,6 0 0 1 6,6 v13 a6,6 0 0 1 -6,6 h-40 a6,6 0 0 1 -6,-6 v-13 a6,6 0 0 1 6,-6"/></clipPath></defs><mask id="satori_om-id-2-0-1-1"><rect x="217" y="46" width="50" height="23" fill="#fff" mask="url(#satori_om-id)"/><path width="52" height="25" fill="none" stroke="#000" stroke-width="2" d="M217.757,46.757 A6,6 0 0 1 222,45 h40 a6,6 0 0 1 6,6 v13 a6,6 0 0 1 -6,6 h-40 a6,6 0 0 1 -6,-6 v-13 A6,6 0 0 1 217.757,46.757"/></mask><path x="216" y="45" width="52" height="25" fill="#a78bfa15" d="M222,45 h40 a6,6 0 0 1 6,6 v13 a6,6 0 0 1 -6,6 h-40 a6,6 0 0 1 -6,-6 v-13 a6,6 0 0 1 6,-6" clip-path="url(#satori_cp-id)" mask="url(#satori_om-id)"/><path width="52" height="25" clip-path="url(#satori_bc-id-2-0-1-1)" fill="none" stroke="#a78bfa35" stroke-width="2" d="M217.757,46.757 A6,6 0 0 1 222,45 h40 a6,6 0 0 1 6,6 v13 a6,6 0 0 1 -6,6 h-40 a6,6 0 0 1 -6,-6 v-13 A6,6 0 0 1 217.757,46.757"/><g mask="url(#satori_om-id)" clip-path="url(#satori_cp-id)"><path fill="rgba(225,220,255,0.85)" d="M234.0 62.1L234.0 62.1Q232.9 62.1 232.2 61.8Q231.4 61.5 231.0 60.9Q230.5 60.2 230.5 59.3L230.5 59.3L232.2 59.3Q232.3 59.7 232.5 60.0Q232.7 60.3 233.1 60.5Q233.5 60.6 234.0 60.6L234.0 60.6Q234.5 60.6 234.8 60.5Q235.2 60.3 235.4 60.1Q235.6 59.8 235.6 59.5L235.6 59.5Q235.6 59.2 235.4 59.0Q235.2 58.8 234.9 58.7Q234.5 58.5 234.1 58.4L234.1 58.4L233.1 58.2Q232.0 57.9 231.4 57.3Q230.7 56.7 230.7 55.8L230.7 55.8Q230.7 55.0 231.2 54.4Q231.6 53.8 232.3 53.5Q233.1 53.2 234.0 53.2L234.0 53.2Q235.0 53.2 235.7 53.5Q236.4 53.8 236.8 54.4Q237.2 55.0 237.2 55.8L237.2 55.8L235.5 55.8Q235.5 55.2 235.1 54.9Q234.7 54.7 234.0 54.7L234.0 54.7Q233.5 54.7 233.2 54.8Q232.9 54.9 232.7 55.1Q232.6 55.4 232.6 55.7L232.6 55.7Q232.6 56.0 232.8 56.2Q233.0 56.4 233.3 56.5Q233.6 56.7 234.0 56.8L234.0 56.8L234.8 57.0Q235.3 57.1 235.8 57.3Q236.3 57.5 236.6 57.8Q237.0 58.1 237.2 58.5Q237.4 59.0 237.4 59.5L237.4 59.5Q237.4 60.3 237.0 60.9Q236.6 61.5 235.8 61.8Q235.1 62.1 234.0 62.1ZM242.5 62.1L242.5 62.1Q241.3 62.1 240.4 61.6Q239.5 61.1 238.9 60.1Q238.4 59.1 238.4 57.6L238.4 57.6Q238.4 56.2 238.9 55.2Q239.5 54.2 240.4 53.7Q241.3 53.2 242.5 53.2L242.5 53.2Q243.6 53.2 244.6 53.7Q245.5 54.2 246.0 55.2Q246.6 56.2 246.6 57.6L246.6 57.6Q246.6 59.1 246.0 60.1L246.0 60.1Q245.7 60.7 245.2 61.1L245.2 61.1L246.4 62.7L244.8 62.7L244.1 61.8Q243.3 62.1 242.5 62.1ZM243.0 60.5L241.9 59L243.5 59L244.1 59.8Q244.3 59.6 244.5 59.2L244.5 59.2Q244.7 58.6 244.7 57.6L244.7 57.6Q244.7 56.7 244.5 56.0Q244.2 55.4 243.7 55.1Q243.2 54.7 242.5 54.7L242.5 54.7Q241.8 54.7 241.3 55.1Q240.8 55.4 240.5 56.1Q240.2 56.7 240.2 57.6L240.2 57.6Q240.2 58.6 240.5 59.2Q240.8 59.9 241.3 60.2Q241.8 60.5 242.5 60.5L242.5 60.5Q242.8 60.5 243.0 60.5L243.0 60.5ZM253.5 62L248.0 62L248.0 53.3L249.8 53.3L249.8 60.5L253.5 60.5L253.5 62Z "/></g><mask id="satori_om-id-2-1"><rect x="33" y="84" width="794" height="25" fill="#fff" mask="url(#satori_om-id)"/></mask><mask id="satori_om-id-2-1-0"><rect x="33" y="91" width="90" height="12" fill="#fff" mask="url(#satori_om-id)"/></mask><g mask="url(#satori_om-id)" clip-path="url(#satori_cp-id)"><path fill="#60a5fa" d="M35.1 101L33.7 101L33.7 93.7L38.4 93.7L38.4 95.0L35.1 95.0L35.1 97.0L38.1 97.0L38.1 98.2L35.1 98.2L35.1 101ZM45.4 101L40.5 101L40.5 93.7L45.4 93.7L45.4 95.0L42.0 95.0L42.0 96.7L45.1 96.7L45.1 97.9L42.0 97.9L42.0 99.8L45.4 99.8L45.4 101ZM49.1 101L47.6 101L47.6 93.7L50.4 93.7Q51.3 93.7 51.9 94.0Q52.4 94.3 52.7 94.8Q53.0 95.4 53.0 96.1Q53.0 96.8 52.7 97.3Q52.4 97.9 51.8 98.1L51.8 98.1Q51.8 98.1 51.8 98.2L51.8 98.2L53.3 101L51.7 101L50.3 98.4L49.1 98.4L49.1 101ZM49.1 95.0L49.1 97.2L50.2 97.2Q50.6 97.2 50.9 97.1Q51.2 96.9 51.4 96.7Q51.5 96.5 51.5 96.1L51.5 96.1Q51.5 95.7 51.4 95.5Q51.2 95.2 50.9 95.1Q50.6 95.0 50.2 95.0L50.2 95.0L49.1 95.0ZM56.7 101L55.2 101L55.2 93.7L58.0 93.7Q58.8 93.7 59.4 94.0Q60.0 94.3 60.3 94.8Q60.6 95.4 60.6 96.1Q60.6 96.8 60.3 97.3Q60.0 97.9 59.4 98.1L59.4 98.1Q59.4 98.1 59.3 98.2L59.3 98.2L60.9 101L59.2 101L57.8 98.4L56.7 98.4L56.7 101ZM56.7 95.0L56.7 97.2L57.7 97.2Q58.2 97.2 58.5 97.1Q58.8 96.9 58.9 96.7Q59.1 96.5 59.1 96.1L59.1 96.1Q59.1 95.7 58.9 95.5Q58.8 95.2 58.5 95.1Q58.2 95.0 57.7 95.0L57.7 95.0L56.7 95.0ZM64.0 101L62.3 101L64.8 93.7L66.8 93.7L69.3 101L67.6 101L67.1 99.3L64.5 99.3L64.0 101ZM64.9 98.1L66.7 98.1L66.5 97.5Q66.3 96.8 66.1 96L66.1 96Q65.9 95.5 65.8 94.9L65.8 94.9Q65.6 95.5 65.5 96.0L65.5 96.0Q65.3 96.8 65.1 97.5L65.1 97.5L64.9 98.1ZM72.7 101L71.2 101L71.2 93.7L73.5 93.7L74.7 97.1Q74.7 97.3 74.8 97.7Q74.9 98.0 75.0 98.5L75.0 98.5Q75.1 98.9 75.2 99.3L75.2 99.3Q75.3 98.9 75.4 98.5L75.4 98.5Q75.5 98.1 75.6 97.7Q75.7 97.3 75.7 97.1L75.7 97.1L76.9 93.7L79.2 93.7L79.2 101L77.7 101L77.7 97.6Q77.7 97.3 77.7 97.0Q77.7 96.6 77.7 96.2Q77.7 95.8 77.8 95.4L77.8 95.4Q77.8 95.2 77.8 95.0L77.8 95.0Q77.7 95.2 77.7 95.4L77.7 95.4Q77.5 95.9 77.4 96.3Q77.3 96.7 77.2 97.0Q77.1 97.3 77.0 97.6L77.0 97.6L75.8 101L74.6 101L73.4 97.6Q73.3 97.3 73.2 97.0Q73.1 96.7 73.0 96.3Q72.8 95.9 72.7 95.4L72.7 95.4Q72.7 95.2 72.6 95.1L72.6 95.1Q72.6 95.2 72.6 95.4L72.6 95.4Q72.6 95.8 72.7 96.2Q72.7 96.6 72.7 97.0Q72.7 97.3 72.7 97.6L72.7 97.6L72.7 101ZM86.4 101L81.5 101L81.5 93.7L86.4 93.7L86.4 95.0L83.0 95.0L83.0 96.7L86.1 96.7L86.1 97.9L83.0 97.9L83.0 99.8L86.4 99.8L86.4 101ZM90.1 101L88.6 101L88.6 93.7L90.3 93.7L92.6 97.4Q92.7 97.7 92.9 98.0Q93.1 98.4 93.3 98.8L93.3 98.8Q93.4 99.0 93.5 99.2L93.5 99.2Q93.5 99.0 93.4 98.8L93.4 98.8Q93.4 98.3 93.4 97.9Q93.4 97.5 93.4 97.2L93.4 97.2L93.4 93.7L94.9 93.7L94.9 101L93.2 101L91.1 97.7Q90.9 97.3 90.7 96.9Q90.5 96.6 90.3 96.1L90.3 96.1Q90.2 95.9 90.0 95.6L90.0 95.6Q90.0 95.9 90.1 96.1L90.1 96.1Q90.1 96.6 90.1 97.0Q90.1 97.4 90.1 97.7L90.1 97.7L90.1 101ZM99.1 95.0L96.9 95.0L96.9 93.7L102.9 93.7L102.9 95.0L100.6 95.0L100.6 101L99.1 101L99.1 95.0ZM106.1 101L104.5 101L107.0 93.7L108.9 93.7L111.5 101L109.8 101L109.2 99.3L106.7 99.3L106.1 101ZM107.0 98.1L108.9 98.1L108.6 97.5Q108.4 96.8 108.2 96L108.2 96Q108.1 95.5 107.9 94.9L107.9 94.9Q107.8 95.5 107.6 96.0L107.6 96.0Q107.4 96.8 107.2 97.5L107.2 97.5L107.0 98.1ZM116.0 101.1L116.0 101.1Q115.1 101.1 114.5 100.8Q113.9 100.6 113.5 100.0Q113.1 99.5 113.1 98.7L113.1 98.7L114.6 98.7Q114.6 99.1 114.8 99.4Q115.0 99.6 115.3 99.7Q115.6 99.8 116.0 99.8L116.0 99.8Q116.4 99.8 116.7 99.7Q117.0 99.6 117.2 99.4Q117.3 99.2 117.3 98.9L117.3 98.9Q117.3 98.7 117.2 98.5Q117.0 98.3 116.8 98.2Q116.5 98.1 116.1 98.0L116.1 98.0L115.3 97.8Q114.4 97.6 113.8 97.1Q113.3 96.6 113.3 95.8L113.3 95.8Q113.3 95.2 113.7 94.7Q114.0 94.2 114.6 93.9Q115.3 93.6 116.0 93.6L116.0 93.6Q116.8 93.6 117.4 93.9Q118.0 94.2 118.4 94.7Q118.7 95.2 118.7 95.8L118.7 95.8L117.3 95.8Q117.3 95.4 116.9 95.1Q116.6 94.9 116.0 94.9L116.0 94.9Q115.7 94.9 115.4 95.0Q115.1 95.1 115.0 95.3Q114.8 95.5 114.8 95.7L114.8 95.7Q114.8 96.0 115.0 96.2Q115.2 96.3 115.4 96.5Q115.7 96.6 116.0 96.6L116.0 96.6L116.7 96.8Q117.1 96.9 117.5 97.1Q117.9 97.3 118.2 97.5Q118.5 97.8 118.7 98.1Q118.8 98.5 118.8 98.9L118.8 98.9Q118.8 99.6 118.5 100.1Q118.2 100.6 117.5 100.8Q116.9 101.1 116.0 101.1Z "/></g><mask id="satori_om-id-2-1-1"><rect x="139" y="84" width="228" height="25" fill="#fff" mask="url(#satori_om-id)"/></mask><defs><clipPath id="satori_bc-id-2-1-1-0" clip-path="url(#satori_cp-id)"><path x="139" y="84" width="48" height="25" d="M145,84 h36 a6,6 0 0 1 6,6 v13 a6,6 0 0 1 -6,6 h-36 a6,6 0 0 1 -6,-6 v-13 a6,6 0 0 1 6,-6"/></clipPath></defs><mask id="satori_om-id-2-1-1-0"><rect x="140" y="85" width="46" height="23" fill="#fff" mask="url(#satori_om-id)"/><path width="48" height="25" fill="none" stroke="#000" stroke-width="2" d="M140.757,85.757 A6,6 0 0 1 145,84 h36 a6,6 0 0 1 6,6 v13 a6,6 0 0 1 -6,6 h-36 a6,6 0 0 1 -6,-6 v-13 A6,6 0 0 1 140.757,85.757"/></mask><path x="139" y="84" width="48" height="25" fill="#60a5fa15" d="M145,84 h36 a6,6 0 0 1 6,6 v13 a6,6 0 0 1 -6,6 h-36 a6,6 0 0 1 -6,-6 v-13 a6,6 0 0 1 6,-6" clip-path="url(#satori_cp-id)" mask="url(#satori_om-id)"/><path width="48" height="25" clip-path="url(#satori_bc-id-2-1-1-0)" fill="none" stroke="#60a5fa35" stroke-width="2" d="M140.757,85.757 A6,6 0 0 1 145,84 h36 a6,6 0 0 1 6,6 v13 a6,6 0 0 1 -6,6 h-36 a6,6 0 0 1 -6,-6 v-13 A6,6 0 0 1 140.757,85.757"/><g mask="url(#satori_om-id)" clip-path="url(#satori_cp-id)"><path fill="rgba(225,220,255,0.85)" d="M156.1 101.1L156.1 101.1Q155.4 101.1 154.8 100.7Q154.2 100.3 153.8 99.6Q153.5 98.8 153.5 97.7L153.5 97.7Q153.5 96.6 153.8 95.9Q154.2 95.1 154.8 94.7Q155.4 94.4 156.1 94.4L156.1 94.4Q156.7 94.4 157.1 94.6Q157.4 94.7 157.7 95.0Q157.9 95.3 158.0 95.6L158.0 95.6L158.1 95.6L158.1 92.3L159.8 92.3L159.8 101L158.1 101L158.1 100.0L158.0 100.0Q157.9 100.2 157.6 100.5Q157.4 100.7 157.0 100.9Q156.7 101.1 156.1 101.1ZM156.7 99.7L156.7 99.7Q157.1 99.7 157.4 99.5Q157.8 99.2 157.9 98.8Q158.1 98.3 158.1 97.7L158.1 97.7Q158.1 97.1 157.9 96.7Q157.8 96.3 157.5 96.0Q157.1 95.8 156.7 95.8L156.7 95.8Q156.2 95.8 155.9 96.0Q155.6 96.3 155.4 96.7Q155.3 97.2 155.3 97.7L155.3 97.7Q155.3 98.3 155.4 98.8Q155.6 99.2 155.9 99.4Q156.2 99.7 156.7 99.7ZM165.0 101.1L165.0 101.1Q164.4 101.1 164.1 100.9Q163.7 100.7 163.5 100.5Q163.2 100.2 163.1 100.0L163.1 100.0L163.0 100.0L163.0 101L161.3 101L161.3 92.3L163.1 92.3L163.1 95.6L163.1 95.6Q163.2 95.3 163.5 95.0Q163.7 94.7 164.1 94.6Q164.4 94.4 165.0 94.4L165.0 94.4Q165.7 94.4 166.3 94.7Q166.9 95.1 167.3 95.9Q167.6 96.6 167.6 97.7L167.6 97.7Q167.6 98.8 167.3 99.6Q166.9 100.3 166.3 100.7Q165.7 101.1 165.0 101.1ZM164.4 99.7L164.4 99.7Q164.9 99.7 165.2 99.4Q165.5 99.2 165.7 98.8Q165.8 98.3 165.8 97.7L165.8 97.7Q165.8 97.2 165.7 96.7Q165.5 96.3 165.2 96.0Q164.9 95.8 164.4 95.8L164.4 95.8Q164.0 95.8 163.7 96.0Q163.4 96.3 163.2 96.7Q163.0 97.1 163.0 97.7L163.0 97.7Q163.0 98.3 163.2 98.8Q163.4 99.2 163.7 99.5Q164.0 99.7 164.4 99.7ZM170.9 94.4L172.1 94.4L172.1 95.8L170.9 95.8L170.9 99.1Q170.9 99.4 171.0 99.5Q171.2 99.7 171.5 99.7L171.5 99.7Q171.6 99.7 171.8 99.7Q172.0 99.6 172.1 99.6L172.1 99.6L172.3 100.9Q172.0 101.0 171.7 101.1Q171.4 101.1 171.2 101.1L171.2 101.1Q170.2 101.1 169.7 100.6Q169.1 100.1 169.1 99.2L169.1 99.2L169.1 95.8L168.2 95.8L168.2 94.4L169.1 94.4L169.1 92.9L170.9 92.9L170.9 94.4Z "/></g><defs><clipPath id="satori_bc-id-2-1-1-1" clip-path="url(#satori_cp-id)"><path x="194" y="84" width="45" height="25" d="M200,84 h33 a6,6 0 0 1 6,6 v13 a6,6 0 0 1 -6,6 h-33 a6,6 0 0 1 -6,-6 v-13 a6,6 0 0 1 6,-6"/></clipPath></defs><mask id="satori_om-id-2-1-1-1"><rect x="195" y="85" width="43" height="23" fill="#fff" mask="url(#satori_om-id)"/><path width="45" height="25" fill="none" stroke="#000" stroke-width="2" d="M195.757,85.757 A6,6 0 0 1 200,84 h33 a6,6 0 0 1 6,6 v13 a6,6 0 0 1 -6,6 h-33 a6,6 0 0 1 -6,-6 v-13 A6,6 0 0 1 195.757,85.757"/></mask><path x="194" y="84" width="45" height="25" fill="#60a5fa15" d="M200,84 h33 a6,6 0 0 1 6,6 v13 a6,6 0 0 1 -6,6 h-33 a6,6 0 0 1 -6,-6 v-13 a6,6 0 0 1 6,-6" clip-path="url(#satori_cp-id)" mask="url(#satori_om-id)"/><path width="45" height="25" clip-path="url(#satori_bc-id-2-1-1-1)" fill="none" stroke="#60a5fa35" stroke-width="2" d="M195.757,85.757 A6,6 0 0 1 200,84 h33 a6,6 0 0 1 6,6 v13 a6,6 0 0 1 -6,6 h-33 a6,6 0 0 1 -6,-6 v-13 A6,6 0 0 1 195.757,85.757"/><g mask="url(#satori_om-id)" clip-path="url(#satori_cp-id)"><path fill="rgba(225,220,255,0.85)" d="M212.7 101.1L212.7 101.1Q211.4 101.1 210.5 100.6Q209.6 100.0 209.1 99.0Q208.6 98.0 208.6 96.6L208.6 96.6Q208.6 95.2 209.1 94.2Q209.6 93.2 210.5 92.7Q211.5 92.2 212.6 92.2L212.6 92.2Q213.4 92.2 214.0 92.4Q214.6 92.6 215.1 93.0Q215.6 93.4 215.9 93.9Q216.2 94.4 216.3 95.1L216.3 95.1L214.5 95.1Q214.4 94.8 214.3 94.5Q214.1 94.3 213.9 94.1Q213.6 93.9 213.3 93.8Q213.0 93.7 212.6 93.7L212.6 93.7Q212.0 93.7 211.5 94.1Q210.9 94.4 210.7 95.1Q210.4 95.7 210.4 96.6Q210.4 97.6 210.7 98.2Q210.9 98.8 211.5 99.2Q212.0 99.5 212.7 99.5L212.7 99.5Q213.3 99.5 213.8 99.3Q214.2 99.1 214.5 98.6L214.5 98.6Q214.7 98.2 214.7 97.7L214.7 97.7L212.8 97.7L212.8 96.3L216.4 96.3L216.4 97.4Q216.4 98.6 215.9 99.4Q215.5 100.2 214.6 100.7Q213.8 101.1 212.7 101.1ZM219.5 101L217.8 101L217.8 94.4L219.5 94.4L219.5 101ZM218.6 93.6L218.6 93.6Q218.2 93.6 218.0 93.3Q217.7 93.1 217.7 92.7L217.7 92.7Q217.7 92.3 218.0 92.1Q218.2 91.8 218.6 91.8L218.6 91.8Q219.0 91.8 219.3 92.0Q219.6 92.3 219.6 92.7L219.6 92.7Q219.6 93.1 219.3 93.3Q219.0 93.6 218.6 93.6ZM223.0 94.4L224.3 94.4L224.3 95.8L223.0 95.8L223.0 99.1Q223.0 99.4 223.2 99.5Q223.3 99.7 223.6 99.7L223.6 99.7Q223.7 99.7 223.9 99.7Q224.1 99.6 224.2 99.6L224.2 99.6L224.4 100.9Q224.1 101.0 223.9 101.1Q223.6 101.1 223.3 101.1L223.3 101.1Q222.3 101.1 221.8 100.6Q221.3 100.1 221.3 99.2L221.3 99.2L221.3 95.8L220.4 95.8L220.4 94.4L221.3 94.4L221.3 92.9L223.0 92.9L223.0 94.4Z "/></g><defs><clipPath id="satori_bc-id-2-1-1-2" clip-path="url(#satori_cp-id)"><path x="246" y="84" width="60" height="25" d="M252,84 h48 a6,6 0 0 1 6,6 v13 a6,6 0 0 1 -6,6 h-48 a6,6 0 0 1 -6,-6 v-13 a6,6 0 0 1 6,-6"/></clipPath></defs><mask id="satori_om-id-2-1-1-2"><rect x="247" y="85" width="58" height="23" fill="#fff" mask="url(#satori_om-id)"/><path width="60" height="25" fill="none" stroke="#000" stroke-width="2" d="M247.757,85.757 A6,6 0 0 1 252,84 h48 a6,6 0 0 1 6,6 v13 a6,6 0 0 1 -6,6 h-48 a6,6 0 0 1 -6,-6 v-13 A6,6 0 0 1 247.757,85.757"/></mask><path x="246" y="84" width="60" height="25" fill="#60a5fa15" d="M252,84 h48 a6,6 0 0 1 6,6 v13 a6,6 0 0 1 -6,6 h-48 a6,6 0 0 1 -6,-6 v-13 a6,6 0 0 1 6,-6" clip-path="url(#satori_cp-id)" mask="url(#satori_om-id)"/><path width="60" height="25" clip-path="url(#satori_bc-id-2-1-1-2)" fill="none" stroke="#60a5fa35" stroke-width="2" d="M247.757,85.757 A6,6 0 0 1 252,84 h48 a6,6 0 0 1 6,6 v13 a6,6 0 0 1 -6,6 h-48 a6,6 0 0 1 -6,-6 v-13 A6,6 0 0 1 247.757,85.757"/><g mask="url(#satori_om-id)" clip-path="url(#satori_cp-id)"><path fill="rgba(225,220,255,0.85)" d="M266.3 101L260.8 101L260.8 92.3L262.6 92.3L262.6 99.5L266.3 99.5L266.3 101ZM269.3 101L267.5 101L267.5 94.4L269.3 94.4L269.3 101ZM268.4 93.6L268.4 93.6Q268.0 93.6 267.7 93.3Q267.5 93.1 267.5 92.7L267.5 92.7Q267.5 92.3 267.7 92.1Q268.0 91.8 268.4 91.8L268.4 91.8Q268.8 91.8 269.1 92.0Q269.4 92.3 269.4 92.7L269.4 92.7Q269.4 93.1 269.1 93.3Q268.8 93.6 268.4 93.6ZM272.5 97.2L272.5 97.2L272.5 101L270.8 101L270.8 94.4L272.4 94.4L272.5 95.8Q272.7 95.2 273.2 94.8L273.2 94.8Q273.7 94.4 274.5 94.4L274.5 94.4Q275.2 94.4 275.7 94.7Q276.2 95.0 276.5 95.5Q276.8 96.1 276.8 96.8L276.8 96.8L276.8 101L275 101L275 97.1Q275 96.5 274.7 96.2Q274.4 95.8 273.8 95.8L273.8 95.8Q273.4 95.8 273.2 96.0Q272.9 96.2 272.7 96.5Q272.5 96.8 272.5 97.2ZM280.5 101.1L280.5 101.1Q279.8 101.1 279.3 100.8Q278.8 100.5 278.5 99.9Q278.3 99.4 278.3 98.6L278.3 98.6L278.3 94.4L280.0 94.4L280.0 98.3Q280.0 98.9 280.3 99.3Q280.6 99.6 281.2 99.6L281.2 99.6Q281.6 99.6 281.9 99.5Q282.1 99.3 282.3 99.0Q282.5 98.7 282.5 98.2L282.5 98.2L282.5 94.4L284.2 94.4L284.2 101L282.6 101L282.6 99.6Q282.3 100.3 281.9 100.6L281.9 100.6Q281.3 101.1 280.5 101.1ZM287.1 101L285.2 101L287.3 97.6L285.4 94.4L287.3 94.4L287.8 95.5Q288.1 96.0 288.4 96.5L288.4 96.5Q288.4 96.6 288.5 96.8L288.5 96.8Q288.5 96.6 288.6 96.5L288.6 96.5Q288.8 96.0 289.1 95.5L289.1 95.5L289.7 94.4L291.6 94.4L289.6 97.7L291.7 101L289.8 101L289.1 99.8Q288.8 99.3 288.6 98.8L288.6 98.8Q288.5 98.6 288.4 98.5L288.4 98.5Q288.4 98.6 288.3 98.8L288.3 98.8Q288.1 99.3 287.8 99.8L287.8 99.8L287.1 101Z "/></g><defs><clipPath id="satori_bc-id-2-1-1-3" clip-path="url(#satori_cp-id)"><path x="313" y="84" width="54" height="25" d="M319,84 h42 a6,6 0 0 1 6,6 v13 a6,6 0 0 1 -6,6 h-42 a6,6 0 0 1 -6,-6 v-13 a6,6 0 0 1 6,-6"/></clipPath></defs><mask id="satori_om-id-2-1-1-3"><rect x="314" y="85" width="52" height="23" fill="#fff" mask="url(#satori_om-id)"/><path width="54" height="25" fill="none" stroke="#000" stroke-width="2" d="M314.757,85.757 A6,6 0 0 1 319,84 h42 a6,6 0 0 1 6,6 v13 a6,6 0 0 1 -6,6 h-42 a6,6 0 0 1 -6,-6 v-13 A6,6 0 0 1 314.757,85.757"/></mask><path x="313" y="84" width="54" height="25" fill="#60a5fa15" d="M319,84 h42 a6,6 0 0 1 6,6 v13 a6,6 0 0 1 -6,6 h-42 a6,6 0 0 1 -6,-6 v-13 a6,6 0 0 1 6,-6" clip-path="url(#satori_cp-id)" mask="url(#satori_om-id)"/><path width="54" height="25" clip-path="url(#satori_bc-id-2-1-1-3)" fill="none" stroke="#60a5fa35" stroke-width="2" d="M314.757,85.757 A6,6 0 0 1 319,84 h42 a6,6 0 0 1 6,6 v13 a6,6 0 0 1 -6,6 h-42 a6,6 0 0 1 -6,-6 v-13 A6,6 0 0 1 314.757,85.757"/><g mask="url(#satori_om-id)" clip-path="url(#satori_cp-id)"><path fill="rgba(225,220,255,0.85)" d="M331.7 101.1L331.7 101.1Q330.4 101.1 329.5 100.6Q328.6 100.0 328.1 99.0Q327.6 98.0 327.6 96.6L327.6 96.6Q327.6 95.2 328.1 94.2Q328.6 93.2 329.5 92.7Q330.5 92.2 331.6 92.2L331.6 92.2Q332.4 92.2 333.0 92.4Q333.6 92.6 334.1 93.0Q334.6 93.4 334.9 93.9Q335.2 94.4 335.3 95.1L335.3 95.1L333.5 95.1Q333.4 94.8 333.3 94.5Q333.1 94.3 332.9 94.1Q332.6 93.9 332.3 93.8Q332.0 93.7 331.6 93.7L331.6 93.7Q331.0 93.7 330.5 94.1Q329.9 94.4 329.7 95.1Q329.4 95.7 329.4 96.6Q329.4 97.6 329.7 98.2Q329.9 98.8 330.5 99.2Q331.0 99.5 331.7 99.5L331.7 99.5Q332.3 99.5 332.8 99.3Q333.2 99.1 333.5 98.6L333.5 98.6Q333.7 98.2 333.7 97.7L333.7 97.7L331.8 97.7L331.8 96.3L335.4 96.3L335.4 97.4Q335.4 98.6 334.9 99.4Q334.5 100.2 333.6 100.7Q332.8 101.1 331.7 101.1ZM340.6 101.1L340.6 101.1Q339.5 101.1 338.5 100.6Q337.6 100.1 337.1 99.1Q336.6 98.1 336.6 96.6L336.6 96.6Q336.6 95.2 337.1 94.2Q337.6 93.2 338.5 92.7Q339.5 92.2 340.6 92.2L340.6 92.2Q341.4 92.2 342.0 92.4Q342.6 92.6 343.1 93.0Q343.6 93.4 344.0 93.9Q344.3 94.5 344.4 95.3L344.4 95.3L342.6 95.3Q342.5 94.9 342.3 94.6Q342.2 94.3 341.9 94.1Q341.7 93.9 341.3 93.8Q341.0 93.7 340.6 93.7L340.6 93.7Q340.0 93.7 339.5 94.1Q338.9 94.4 338.7 95.1Q338.4 95.7 338.4 96.6L338.4 96.6Q338.4 97.6 338.7 98.2Q338.9 98.9 339.5 99.2Q340.0 99.5 340.6 99.5L340.6 99.5Q341.0 99.5 341.3 99.4Q341.7 99.3 341.9 99.1Q342.2 98.9 342.3 98.7Q342.5 98.4 342.6 98.0L342.6 98.0L344.4 98.0Q344.3 98.6 344.0 99.2Q343.7 99.7 343.2 100.2Q342.8 100.6 342.1 100.9Q341.4 101.1 340.6 101.1ZM347.5 101L345.7 101L345.7 92.3L349.1 92.3Q350.1 92.3 350.8 92.6Q351.5 93.0 351.8 93.7Q352.2 94.4 352.2 95.2L352.2 95.2Q352.2 96.1 351.8 96.7Q351.5 97.4 350.8 97.8Q350.0 98.1 349.0 98.1L349.0 98.1L347.5 98.1L347.5 101ZM347.5 93.7L347.5 96.7L348.8 96.7Q349.3 96.7 349.7 96.5Q350.0 96.3 350.2 96.0Q350.4 95.7 350.4 95.2Q350.4 94.8 350.2 94.4Q350.0 94.1 349.7 93.9Q349.3 93.7 348.7 93.7L348.7 93.7L347.5 93.7Z "/></g><mask id="satori_om-id-2-2"><rect x="33" y="123" width="794" height="25" fill="#fff" mask="url(#satori_om-id)"/></mask><mask id="satori_om-id-2-2-0"><rect x="33" y="130" width="90" height="12" fill="#fff" mask="url(#satori_om-id)"/></mask><g mask="url(#satori_om-id)" clip-path="url(#satori_cp-id)"><path fill="#22d3ee" d="M38.5 140L33.7 140L33.7 132.7L38.5 132.7L38.5 134.0L35.1 134.0L35.1 135.7L38.3 135.7L38.3 136.9L35.1 136.9L35.1 138.8L38.5 138.8L38.5 140ZM43.4 140.1L43.4 140.1Q42.5 140.1 41.9 139.8Q41.2 139.6 40.9 139.0Q40.5 138.5 40.5 137.7L40.5 137.7L41.9 137.7Q42.0 138.1 42.2 138.4Q42.3 138.6 42.7 138.7Q43.0 138.8 43.4 138.8L43.4 138.8Q43.8 138.8 44.1 138.7Q44.4 138.6 44.5 138.4Q44.7 138.2 44.7 137.9L44.7 137.9Q44.7 137.7 44.6 137.5Q44.4 137.3 44.1 137.2Q43.9 137.1 43.5 137.0L43.5 137.0L42.7 136.8Q41.7 136.6 41.2 136.1Q40.7 135.6 40.7 134.8L40.7 134.8Q40.7 134.2 41.0 133.7Q41.4 133.2 42.0 132.9Q42.6 132.6 43.4 132.6L43.4 132.6Q44.2 132.6 44.8 132.9Q45.4 133.2 45.8 133.7Q46.1 134.2 46.1 134.8L46.1 134.8L44.7 134.8Q44.6 134.4 44.3 134.1Q44.0 133.9 43.4 133.9L43.4 133.9Q43.0 133.9 42.8 134.0Q42.5 134.1 42.4 134.3Q42.2 134.5 42.2 134.7L42.2 134.7Q42.2 135.0 42.4 135.2Q42.5 135.3 42.8 135.5Q43.1 135.6 43.4 135.6L43.4 135.6L44.0 135.8Q44.5 135.9 44.9 136.1Q45.3 136.3 45.6 136.5Q45.9 136.8 46.0 137.1Q46.2 137.5 46.2 137.9L46.2 137.9Q46.2 138.6 45.9 139.1Q45.5 139.6 44.9 139.8Q44.3 140.1 43.4 140.1ZM50.2 134.0L48.0 134.0L48.0 132.7L53.9 132.7L53.9 134.0L51.7 134.0L51.7 140L50.2 140L50.2 134.0ZM59.0 140.1L59.0 140.1Q58.1 140.1 57.4 139.8Q56.7 139.4 56.3 138.8Q56.0 138.2 56.0 137.4L56.0 137.4L56.0 132.7L57.4 132.7L57.4 137.3Q57.4 137.7 57.6 138.1Q57.8 138.4 58.2 138.6Q58.5 138.8 59.0 138.8L59.0 138.8Q59.4 138.8 59.8 138.6Q60.1 138.4 60.3 138.1Q60.5 137.7 60.5 137.3L60.5 137.3L60.5 132.7L62.0 132.7L62.0 137.4Q62.0 138.2 61.6 138.8Q61.2 139.4 60.5 139.8Q59.9 140.1 59.0 140.1ZM66.8 140L66.8 140L64.3 140L64.3 132.7L66.9 132.7Q68.0 132.7 68.7 133.2Q69.5 133.6 70.0 134.4Q70.4 135.2 70.4 136.4L70.4 136.4Q70.4 137.5 70.0 138.3Q69.5 139.1 68.7 139.6Q67.9 140 66.8 140ZM65.8 134.0L65.8 138.7L66.8 138.7Q67.5 138.7 67.9 138.5Q68.4 138.2 68.7 137.7Q68.9 137.2 68.9 136.4L68.9 136.4Q68.9 135.5 68.7 135.0Q68.4 134.5 67.9 134.3Q67.5 134.0 66.8 134.0L66.8 134.0L65.8 134.0ZM73.7 140L72.1 140L74.6 132.7L76.5 132.7L79.1 140L77.4 140L76.8 138.3L74.3 138.3L73.7 140ZM74.6 137.1L76.5 137.1L76.2 136.5Q76.0 135.8 75.8 135L75.8 135Q75.7 134.5 75.5 133.9L75.5 133.9Q75.4 134.5 75.3 135.0L75.3 135.0Q75.0 135.8 74.8 136.5L74.8 136.5L74.6 137.1ZM82.5 140L81.0 140L81.0 132.7L82.6 132.7L84.9 136.4Q85.1 136.7 85.3 137.0Q85.5 137.4 85.7 137.8L85.7 137.8Q85.7 138.0 85.8 138.2L85.8 138.2Q85.8 138.0 85.8 137.8L85.8 137.8Q85.8 137.3 85.8 136.9Q85.7 136.5 85.7 136.2L85.7 136.2L85.7 132.7L87.3 132.7L87.3 140L85.6 140L83.5 136.7Q83.3 136.3 83.1 135.9Q82.9 135.6 82.7 135.1L82.7 135.1Q82.5 134.9 82.4 134.6L82.4 134.6Q82.4 134.9 82.4 135.1L82.4 135.1Q82.5 135.6 82.5 136.0Q82.5 136.4 82.5 136.7L82.5 136.7L82.5 140ZM92.1 140L92.1 140L89.6 140L89.6 132.7L92.2 132.7Q93.3 132.7 94.1 133.2Q94.8 133.6 95.3 134.4Q95.7 135.2 95.7 136.4L95.7 136.4Q95.7 137.5 95.3 138.3Q94.8 139.1 94.0 139.6Q93.3 140 92.1 140ZM91.1 134.0L91.1 138.7L92.1 138.7Q92.8 138.7 93.2 138.5Q93.7 138.2 94.0 137.7Q94.2 137.2 94.2 136.4L94.2 136.4Q94.2 135.5 94.0 135.0Q93.7 134.5 93.2 134.3Q92.8 134.0 92.1 134.0L92.1 134.0L91.1 134.0ZM101 140.1L101 140.1Q100.0 140.1 99.3 139.7Q98.5 139.2 98.1 138.4Q97.6 137.5 97.6 136.4L97.6 136.4Q97.6 135.2 98.1 134.3Q98.5 133.5 99.3 133.1Q100.0 132.6 101 132.6L101 132.6Q102.0 132.6 102.7 133.1Q103.5 133.5 103.9 134.3Q104.4 135.2 104.4 136.4L104.4 136.4Q104.4 137.5 103.9 138.4Q103.5 139.2 102.7 139.7Q102.0 140.1 101 140.1ZM101 138.8L101 138.8Q101.6 138.8 102.0 138.5Q102.4 138.2 102.6 137.7Q102.9 137.1 102.9 136.4L102.9 136.4Q102.9 135.6 102.6 135.0Q102.4 134.5 102.0 134.2Q101.6 134.0 101 134.0L101 134.0Q100.4 134.0 100.0 134.2Q99.6 134.5 99.4 135.0Q99.1 135.6 99.1 136.4L99.1 136.4Q99.1 137.1 99.4 137.7Q99.6 138.2 100.0 138.5Q100.4 138.8 101 138.8Z "/></g><mask id="satori_om-id-2-2-1"><rect x="139" y="123" width="175" height="25" fill="#fff" mask="url(#satori_om-id)"/></mask><defs><clipPath id="satori_bc-id-2-2-1-0" clip-path="url(#satori_cp-id)"><path x="139" y="123" width="71" height="25" d="M145,123 h59 a6,6 0 0 1 6,6 v13 a6,6 0 0 1 -6,6 h-59 a6,6 0 0 1 -6,-6 v-13 a6,6 0 0 1 6,-6"/></clipPath></defs><mask id="satori_om-id-2-2-1-0"><rect x="140" y="124" width="69" height="23" fill="#fff" mask="url(#satori_om-id)"/><path width="71" height="25" fill="none" stroke="#000" stroke-width="2" d="M140.757,124.757 A6,6 0 0 1 145,123 h59 a6,6 0 0 1 6,6 v13 a6,6 0 0 1 -6,6 h-59 a6,6 0 0 1 -6,-6 v-13 A6,6 0 0 1 140.757,124.757"/></mask><path x="139" y="123" width="71" height="25" fill="#22d3ee15" d="M145,123 h59 a6,6 0 0 1 6,6 v13 a6,6 0 0 1 -6,6 h-59 a6,6 0 0 1 -6,-6 v-13 a6,6 0 0 1 6,-6" clip-path="url(#satori_cp-id)" mask="url(#satori_om-id)"/><path width="71" height="25" clip-path="url(#satori_bc-id-2-2-1-0)" fill="none" stroke="#22d3ee35" stroke-width="2" d="M140.757,124.757 A6,6 0 0 1 145,123 h59 a6,6 0 0 1 6,6 v13 a6,6 0 0 1 -6,6 h-59 a6,6 0 0 1 -6,-6 v-13 A6,6 0 0 1 140.757,124.757"/><g mask="url(#satori_om-id)" clip-path="url(#satori_cp-id)"><path fill="rgba(225,220,255,0.85)" d="M156.9 140L156.9 140L153.8 140L153.8 131.3L156.9 131.3Q158.2 131.3 159.1 131.8Q160.1 132.3 160.6 133.3Q161.1 134.3 161.1 135.6L161.1 135.6Q161.1 137.0 160.6 138.0Q160.1 139.0 159.1 139.5Q158.2 140 156.9 140ZM155.6 132.8L155.6 138.5L156.8 138.5Q157.6 138.5 158.2 138.2Q158.8 137.9 159.0 137.2Q159.3 136.6 159.3 135.6L159.3 135.6Q159.3 134.7 159.0 134.0Q158.8 133.4 158.2 133.1Q157.6 132.8 156.8 132.8L156.8 132.8L155.6 132.8ZM165.3 140.1L165.3 140.1Q164.4 140.1 163.6 139.7Q162.9 139.3 162.5 138.5Q162.1 137.8 162.1 136.8L162.1 136.8Q162.1 135.7 162.5 135.0Q162.9 134.2 163.6 133.8Q164.4 133.4 165.3 133.4L165.3 133.4Q166.3 133.4 167.1 133.8Q167.8 134.2 168.2 135.0Q168.6 135.7 168.6 136.8L168.6 136.8Q168.6 137.8 168.2 138.5Q167.8 139.3 167.1 139.7Q166.3 140.1 165.3 140.1ZM165.3 138.7L165.3 138.7Q165.8 138.7 166.1 138.5Q166.4 138.2 166.6 137.8Q166.8 137.3 166.8 136.7L166.8 136.7Q166.8 136.2 166.6 135.7Q166.4 135.3 166.1 135.0Q165.8 134.8 165.3 134.8L165.3 134.8Q164.9 134.8 164.6 135.0Q164.3 135.3 164.1 135.7Q163.9 136.2 163.9 136.7L163.9 136.7Q163.9 137.3 164.1 137.8Q164.3 138.2 164.6 138.5Q164.9 138.7 165.3 138.7ZM172.7 140.1L172.7 140.1Q171.7 140.1 171.0 139.7Q170.3 139.3 169.9 138.5Q169.5 137.8 169.5 136.8L169.5 136.8Q169.5 135.7 169.9 135.0Q170.3 134.2 171.0 133.8Q171.7 133.4 172.7 133.4L172.7 133.4Q173.3 133.4 173.8 133.5Q174.3 133.7 174.7 134.0Q175.0 134.2 175.3 134.6Q175.5 135.0 175.6 135.5L175.6 135.5L174.0 135.9Q173.9 135.6 173.8 135.4Q173.7 135.2 173.5 135.0Q173.4 134.9 173.2 134.8Q173.0 134.8 172.7 134.8L172.7 134.8Q172.3 134.8 171.9 135.0Q171.6 135.3 171.5 135.7Q171.3 136.2 171.3 136.7L171.3 136.7Q171.3 137.3 171.5 137.8Q171.6 138.2 171.9 138.5Q172.3 138.7 172.7 138.7L172.7 138.7Q173.0 138.7 173.2 138.7Q173.4 138.6 173.6 138.4Q173.7 138.3 173.8 138.1Q173.9 137.9 174.0 137.6L174.0 137.6L175.6 137.9Q175.5 138.4 175.3 138.8Q175.0 139.2 174.7 139.5Q174.3 139.8 173.8 140.0Q173.3 140.1 172.7 140.1ZM178.6 140L176.8 140L176.8 131.3L178.6 131.3L178.6 136.0L178.7 136.0L180.8 133.4L182.9 133.4L180.4 136.3L183.0 140L180.9 140L179.1 137.3L178.6 137.9L178.6 140ZM186.8 140.1L186.8 140.1Q185.8 140.1 185.0 139.7Q184.3 139.3 183.9 138.6Q183.5 137.8 183.5 136.8L183.5 136.8Q183.5 135.7 183.9 135.0Q184.3 134.2 185.0 133.8Q185.7 133.4 186.7 133.4L186.7 133.4Q187.3 133.4 187.9 133.6Q188.4 133.8 188.8 134.2Q189.3 134.6 189.5 135.2Q189.7 135.8 189.7 136.7L189.7 136.7L189.7 137.2L185.3 137.2Q185.3 137.7 185.5 138.0L185.5 138.0Q185.6 138.4 186.0 138.6Q186.3 138.8 186.8 138.8L186.8 138.8Q187.1 138.8 187.3 138.7Q187.6 138.6 187.8 138.5Q188.0 138.3 188.1 138.0L188.1 138.0L189.6 138.3Q189.5 138.9 189.1 139.3Q188.7 139.7 188.1 139.9Q187.5 140.1 186.8 140.1ZM185.3 136.1L185.3 136.1L188.1 136.1Q188.0 135.8 187.9 135.5L187.9 135.5Q187.8 135.1 187.4 134.9Q187.1 134.7 186.7 134.7L186.7 134.7Q186.2 134.7 185.9 134.9Q185.6 135.1 185.4 135.5L185.4 135.5Q185.3 135.7 185.3 136.1ZM192.7 140L190.9 140L190.9 133.4L192.6 133.4L192.6 134.6L192.7 134.6Q192.9 134.0 193.3 133.7Q193.7 133.4 194.3 133.4L194.3 133.4Q194.4 133.4 194.6 133.4Q194.7 133.4 194.9 133.4L194.9 133.4L194.9 135.0Q194.7 134.9 194.5 134.9Q194.3 134.9 194.1 134.9L194.1 134.9Q193.7 134.9 193.4 135.1Q193.1 135.2 192.9 135.6Q192.7 135.9 192.7 136.3L192.7 136.3L192.7 140Z "/></g><defs><clipPath id="satori_bc-id-2-2-1-1" clip-path="url(#satori_cp-id)"><path x="217" y="123" width="97" height="25" d="M223,123 h85 a6,6 0 0 1 6,6 v13 a6,6 0 0 1 -6,6 h-85 a6,6 0 0 1 -6,-6 v-13 a6,6 0 0 1 6,-6"/></clipPath></defs><mask id="satori_om-id-2-2-1-1"><rect x="218" y="124" width="95" height="23" fill="#fff" mask="url(#satori_om-id)"/><path width="97" height="25" fill="none" stroke="#000" stroke-width="2" d="M218.757,124.757 A6,6 0 0 1 223,123 h85 a6,6 0 0 1 6,6 v13 a6,6 0 0 1 -6,6 h-85 a6,6 0 0 1 -6,-6 v-13 A6,6 0 0 1 218.757,124.757"/></mask><path x="217" y="123" width="97" height="25" fill="#22d3ee15" d="M223,123 h85 a6,6 0 0 1 6,6 v13 a6,6 0 0 1 -6,6 h-85 a6,6 0 0 1 -6,-6 v-13 a6,6 0 0 1 6,-6" clip-path="url(#satori_cp-id)" mask="url(#satori_om-id)"/><path width="97" height="25" clip-path="url(#satori_bc-id-2-2-1-1)" fill="none" stroke="#22d3ee35" stroke-width="2" d="M218.757,124.757 A6,6 0 0 1 223,123 h85 a6,6 0 0 1 6,6 v13 a6,6 0 0 1 -6,6 h-85 a6,6 0 0 1 -6,-6 v-13 A6,6 0 0 1 218.757,124.757"/><g mask="url(#satori_om-id)" clip-path="url(#satori_cp-id)"><path fill="rgba(225,220,255,0.85)" d="M235.0 140.1L235.0 140.1Q233.9 140.1 233.2 139.8Q232.4 139.5 232.0 138.9Q231.5 138.2 231.5 137.3L231.5 137.3L233.2 137.3Q233.3 137.7 233.5 138.0Q233.7 138.3 234.1 138.5Q234.5 138.6 235.0 138.6L235.0 138.6Q235.5 138.6 235.8 138.5Q236.2 138.3 236.4 138.1Q236.6 137.8 236.6 137.5L236.6 137.5Q236.6 137.2 236.4 137.0Q236.2 136.8 235.9 136.7Q235.5 136.5 235.1 136.4L235.1 136.4L234.1 136.2Q233.0 135.9 232.4 135.3Q231.7 134.7 231.7 133.8L231.7 133.8Q231.7 133.0 232.2 132.4Q232.6 131.8 233.3 131.5Q234.1 131.2 235.0 131.2L235.0 131.2Q236.0 131.2 236.7 131.5Q237.4 131.8 237.8 132.4Q238.2 133.0 238.2 133.8L238.2 133.8L236.5 133.8Q236.5 133.2 236.1 132.9Q235.7 132.7 235.0 132.7L235.0 132.7Q234.5 132.7 234.2 132.8Q233.9 132.9 233.7 133.1Q233.6 133.4 233.6 133.7L233.6 133.7Q233.6 134.0 233.8 134.2Q234.0 134.4 234.3 134.5Q234.6 134.7 235.0 134.8L235.0 134.8L235.8 135.0Q236.3 135.1 236.8 135.3Q237.3 135.5 237.6 135.8Q238.0 136.1 238.2 136.5Q238.4 137.0 238.4 137.5L238.4 137.5Q238.4 138.3 238.0 138.9Q237.6 139.5 236.8 139.8Q236.1 140.1 235.0 140.1ZM242.6 140.1L242.6 140.1Q241.6 140.1 240.8 139.7Q240.1 139.3 239.7 138.6Q239.3 137.8 239.3 136.8L239.3 136.8Q239.3 135.7 239.7 135.0Q240.1 134.2 240.8 133.8Q241.5 133.4 242.5 133.4L242.5 133.4Q243.1 133.4 243.7 133.6Q244.2 133.8 244.7 134.2Q245.1 134.6 245.3 135.2Q245.6 135.8 245.6 136.7L245.6 136.7L245.6 137.2L241.1 137.2Q241.1 137.7 241.3 138.0L241.3 138.0Q241.5 138.4 241.8 138.6Q242.1 138.8 242.6 138.8L242.6 138.8Q242.9 138.8 243.2 138.7Q243.4 138.6 243.6 138.5Q243.8 138.3 243.9 138.0L243.9 138.0L245.5 138.3Q245.3 138.9 244.9 139.3Q244.5 139.7 243.9 139.9Q243.3 140.1 242.6 140.1ZM241.1 136.1L241.1 136.1L243.9 136.1Q243.8 135.8 243.7 135.5L243.7 135.5Q243.6 135.1 243.3 134.9Q242.9 134.7 242.5 134.7L242.5 134.7Q242.0 134.7 241.7 134.9Q241.4 135.1 241.2 135.5L241.2 135.5Q241.1 135.7 241.1 136.1ZM246.8 131.3L248.5 131.3L248.5 140L246.8 140L246.8 131.3ZM252.3 133.4L253.7 133.4L253.7 134.8L252.3 134.8L252.3 140L250.5 140L250.5 134.8L249.4 134.8L249.4 133.4L250.5 133.4L250.5 132.9Q250.5 132.2 250.8 131.8Q251.1 131.3 251.6 131.1Q252.0 130.9 252.7 130.9L252.7 130.9Q253.1 130.9 253.4 130.9Q253.8 131.0 253.9 131.0L253.9 131.0L253.6 132.4Q253.5 132.3 253.3 132.3Q253.2 132.3 253.0 132.3L253.0 132.3Q252.6 132.3 252.4 132.5Q252.3 132.7 252.3 133.0L252.3 133.0L252.3 133.4Z M259.5 140L257.7 140L257.7 131.3L259.5 131.3L259.5 134.8L263.3 134.8L263.3 131.3L265.0 131.3L265.0 140L263.3 140L263.3 136.3L259.5 136.3L259.5 140ZM269.5 140.1L269.5 140.1Q268.5 140.1 267.8 139.7Q267.1 139.3 266.7 138.5Q266.3 137.8 266.3 136.8L266.3 136.8Q266.3 135.7 266.7 135.0Q267.1 134.2 267.8 133.8Q268.5 133.4 269.5 133.4L269.5 133.4Q270.5 133.4 271.2 133.8Q271.9 134.2 272.3 135.0Q272.7 135.7 272.7 136.8L272.7 136.8Q272.7 137.8 272.3 138.5Q271.9 139.3 271.2 139.7Q270.5 140.1 269.5 140.1ZM269.5 138.7L269.5 138.7Q270.0 138.7 270.3 138.5Q270.6 138.2 270.8 137.8Q270.9 137.3 270.9 136.7L270.9 136.7Q270.9 136.2 270.8 135.7Q270.6 135.3 270.3 135.0Q270.0 134.8 269.5 134.8L269.5 134.8Q269.1 134.8 268.7 135.0Q268.4 135.3 268.3 135.7Q268.1 136.2 268.1 136.7L268.1 136.7Q268.1 137.3 268.3 137.8Q268.4 138.2 268.7 138.5Q269.1 138.7 269.5 138.7ZM276.6 140.1L276.6 140.1Q275.8 140.1 275.2 139.9Q274.5 139.7 274.2 139.2Q273.8 138.8 273.7 138.2L273.7 138.2L275.3 137.9Q275.4 138.4 275.7 138.6Q276.1 138.8 276.6 138.8L276.6 138.8Q277.1 138.8 277.4 138.6Q277.7 138.5 277.7 138.2L277.7 138.2Q277.7 137.9 277.5 137.7Q277.3 137.6 276.8 137.5L276.8 137.5L275.7 137.3Q274.8 137.1 274.3 136.6Q273.8 136.1 273.8 135.4L273.8 135.4Q273.8 134.8 274.2 134.3Q274.5 133.9 275.1 133.6Q275.7 133.4 276.6 133.4L276.6 133.4Q277.4 133.4 277.9 133.6Q278.5 133.8 278.8 134.2Q279.2 134.6 279.3 135.1L279.3 135.1L277.8 135.4Q277.7 135.1 277.4 134.8Q277.1 134.6 276.6 134.6L276.6 134.6Q276.2 134.6 275.9 134.8Q275.6 135.0 275.6 135.3L275.6 135.3Q275.6 135.5 275.8 135.7Q276.0 135.9 276.4 136.0L276.4 136.0L277.6 136.2Q278.6 136.4 279.0 136.8Q279.5 137.3 279.5 138.0L279.5 138.0Q279.5 138.6 279.1 139.1Q278.7 139.6 278.1 139.9Q277.4 140.1 276.6 140.1ZM282.7 133.4L283.9 133.4L283.9 134.8L282.7 134.8L282.7 138.1Q282.7 138.4 282.8 138.5Q283.0 138.7 283.3 138.7L283.3 138.7Q283.4 138.7 283.6 138.7Q283.8 138.6 283.9 138.6L283.9 138.6L284.1 139.9Q283.8 140.0 283.5 140.1Q283.2 140.1 283.0 140.1L283.0 140.1Q282.0 140.1 281.5 139.6Q280.9 139.1 280.9 138.2L280.9 138.2L280.9 134.8L280.0 134.8L280.0 133.4L280.9 133.4L280.9 131.9L282.7 131.9L282.7 133.4ZM288.0 140.1L288.0 140.1Q287.0 140.1 286.3 139.7Q285.6 139.3 285.2 138.6Q284.8 137.8 284.8 136.8L284.8 136.8Q284.8 135.7 285.2 135.0Q285.6 134.2 286.3 133.8Q287.0 133.4 287.9 133.4L287.9 133.4Q288.6 133.4 289.1 133.6Q289.7 133.8 290.1 134.2Q290.5 134.6 290.8 135.2Q291.0 135.8 291.0 136.7L291.0 136.7L291.0 137.2L286.5 137.2Q286.5 137.7 286.7 138.0L286.7 138.0Q286.9 138.4 287.3 138.6Q287.6 138.8 288.1 138.8L288.1 138.8Q288.4 138.8 288.6 138.7Q288.9 138.6 289.0 138.5Q289.2 138.3 289.3 138.0L289.3 138.0L290.9 138.3Q290.8 138.9 290.4 139.3Q290.0 139.7 289.4 139.9Q288.8 140.1 288.0 140.1ZM286.5 136.1L286.5 136.1L289.3 136.1Q289.3 135.8 289.2 135.5L289.2 135.5Q289.0 135.1 288.7 134.9Q288.4 134.7 288.0 134.7L288.0 134.7Q287.5 134.7 287.2 134.9Q286.9 135.1 286.7 135.5L286.7 135.5Q286.6 135.7 286.5 136.1ZM294.6 140.1L294.6 140.1Q293.9 140.1 293.2 139.7Q292.6 139.3 292.3 138.6Q291.9 137.8 291.9 136.7L291.9 136.7Q291.9 135.6 292.3 134.9Q292.7 134.1 293.3 133.7Q293.9 133.4 294.6 133.4L294.6 133.4Q295.2 133.4 295.5 133.6Q295.9 133.7 296.1 134.0Q296.3 134.3 296.5 134.6L296.5 134.6L296.5 134.6L296.5 131.3L298.3 131.3L298.3 140L296.5 140L296.5 139.0L296.5 139.0Q296.3 139.2 296.1 139.5Q295.9 139.7 295.5 139.9Q295.1 140.1 294.6 140.1ZM295.1 138.7L295.1 138.7Q295.6 138.7 295.9 138.5Q296.2 138.2 296.4 137.8Q296.6 137.3 296.6 136.7L296.6 136.7Q296.6 136.1 296.4 135.7Q296.2 135.3 295.9 135.0Q295.6 134.8 295.1 134.8L295.1 134.8Q294.7 134.8 294.4 135.0Q294.1 135.3 293.9 135.7Q293.7 136.2 293.7 136.7L293.7 136.7Q293.7 137.3 293.9 137.8Q294.1 138.2 294.4 138.4Q294.7 138.7 295.1 138.7Z "/></g></svg>